<?xml version="1.0" encoding="UTF-8" standalone="no"?>
<!DOCTYPE svg PUBLIC "-//W3C//DTD SVG 1.1//EN"
 "http://www.w3.org/Graphics/SVG/1.1/DTD/svg11.dtd">
<!-- Generated by graphviz version 13.1.2 (20250808.2320)
 -->
<!-- Title: PRISMS::quadlog&lt; VarContainer &gt; Pages: 1 -->
<svg width="387pt" height="102pt"
 viewBox="0.00 0.00 387.00 102.00" xmlns="http://www.w3.org/2000/svg" xmlns:xlink="http://www.w3.org/1999/xlink">
<g id="graph0" class="graph" transform="scale(1 1) rotate(0) translate(4 97.5)">
<title>PRISMS::quadlog&lt; VarContainer &gt;</title>
<!-- Node1 -->
<g id="Node000001" class="node">
<title>Node1</title>
<g id="a_Node000001"><a xlink:title=" ">
<polygon fill="#999999" stroke="#666666" points="379.25,-55.88 210.25,-55.88 210.25,-36.62 379.25,-36.62 379.25,-55.88"/>
<text xml:space="preserve" text-anchor="middle" x="294.75" y="-42.38" font-family="Helvetica,sans-Serif" font-size="10.00">PRISMS::quadlog&lt; VarContainer &gt;</text>
</a>
</g>
</g>
<!-- Node2 -->
<g id="Node000002" class="node">
<title>Node2</title>
<g id="a_Node000002"><a xlink:href="class_p_r_i_s_m_s_1_1_p_func_base.html" target="_top" xlink:title=" ">
<polygon fill="white" stroke="#666666" points="121,-93.5 3,-93.5 3,-63 121,-63 121,-93.5"/>
<text xml:space="preserve" text-anchor="start" x="11" y="-80" font-family="Helvetica,sans-Serif" font-size="10.00">PRISMS::PFuncBase&lt;</text>
<text xml:space="preserve" text-anchor="middle" x="62" y="-68.75" font-family="Helvetica,sans-Serif" font-size="10.00"> VarContainer, double &gt;</text>
</a>
</g>
</g>
<!-- Node2&#45;&gt;Node1 -->
<g id="edge1_Node000001_Node000002" class="edge">
<title>Node2&#45;&gt;Node1</title>
<g id="a_edge1_Node000001_Node000002"><a xlink:title=" ">
<path fill="none" stroke="#63b8ff" d="M132.52,-71.59C151.89,-69.5 172.92,-67.01 192.25,-64.25 208.02,-62 225.09,-59.14 240.65,-56.36"/>
<polygon fill="#63b8ff" stroke="#63b8ff" points="132.41,-68.08 122.84,-72.62 133.15,-75.05 132.41,-68.08"/>
</a>
</g>
</g>
<!-- Node3 -->
<g id="Node000003" class="node">
<title>Node3</title>
<g id="a_Node000003"><a xlink:href="class_p_r_i_s_m_s_1_1_p_simple_base.html" target="_top" xlink:title=" ">
<polygon fill="white" stroke="#666666" points="124,-30.5 0,-30.5 0,0 124,0 124,-30.5"/>
<text xml:space="preserve" text-anchor="start" x="8" y="-17" font-family="Helvetica,sans-Serif" font-size="10.00">PRISMS::PSimpleBase</text>
<text xml:space="preserve" text-anchor="middle" x="62" y="-5.75" font-family="Helvetica,sans-Serif" font-size="10.00">&lt; VarContainer, double &gt;</text>
</a>
</g>
</g>
<!-- Node3&#45;&gt;Node1 -->
<g id="edge2_Node000001_Node000003" class="edge">
<title>Node3&#45;&gt;Node1</title>
<g id="a_edge2_Node000001_Node000003"><a xlink:title=" ">
<path fill="none" stroke="#9a32cd" stroke-dasharray="5,2" d="M135.75,-12.45C154.25,-12.7 174.05,-13.8 192.25,-16.5 218.22,-20.36 246.85,-29.19 267.06,-36.23"/>
<polygon fill="#9a32cd" stroke="#9a32cd" points="135.95,-8.95 125.93,-12.41 135.91,-15.95 135.95,-8.95"/>
</a>
</g>
<text xml:space="preserve" text-anchor="start" x="145" y="-51.75" font-family="Helvetica,sans-Serif" font-size="10.00" fill="grey">_grad_val</text>
<text xml:space="preserve" text-anchor="start" x="145" y="-36.5" font-family="Helvetica,sans-Serif" font-size="10.00" fill="grey">_hess_val</text>
<text xml:space="preserve" text-anchor="start" x="145" y="-21.25" font-family="Helvetica,sans-Serif" font-size="10.00" fill="grey">_val</text>
</g>
</g>
</svg>
