<?xml version="1.0" encoding="UTF-8" standalone="no"?>
<!DOCTYPE svg PUBLIC "-//W3C//DTD SVG 1.1//EN"
 "http://www.w3.org/Graphics/SVG/1.1/DTD/svg11.dtd">
<!-- Generated by graphviz version 13.1.2 (20250808.2320)
 -->
<!-- Title: MultiPhysicsBVP&lt; dim, degree &gt; Pages: 1 -->
<svg width="390pt" height="199pt"
 viewBox="0.00 0.00 390.00 199.00" xmlns="http://www.w3.org/2000/svg" xmlns:xlink="http://www.w3.org/1999/xlink">
<g id="graph0" class="graph" transform="scale(1 1) rotate(0) translate(4 194.75)">
<title>MultiPhysicsBVP&lt; dim, degree &gt;</title>
<!-- Node1 -->
<g id="Node000001" class="node">
<title>Node1</title>
<g id="a_Node000001"><a xlink:title=" ">
<polygon fill="#999999" stroke="#666666" points="204.88,-30.5 84.62,-30.5 84.62,0 204.88,0 204.88,-30.5"/>
<text xml:space="preserve" text-anchor="start" x="92.62" y="-17" font-family="Helvetica,sans-Serif" font-size="10.00">MultiPhysicsBVP&lt; dim,</text>
<text xml:space="preserve" text-anchor="middle" x="144.75" y="-5.75" font-family="Helvetica,sans-Serif" font-size="10.00"> degree &gt;</text>
</a>
</g>
</g>
<!-- Node2 -->
<g id="Node000002" class="node">
<title>Node2</title>
<g id="a_Node000002"><a xlink:title=" ">
<polygon fill="white" stroke="#bfbfbf" points="65.5,-103 0,-103 0,-83.75 65.5,-83.75 65.5,-103"/>
<text xml:space="preserve" text-anchor="middle" x="32.75" y="-89.5" font-family="Helvetica,sans-Serif" font-size="10.00">Subscriptor</text>
</a>
</g>
</g>
<!-- Node2&#45;&gt;Node1 -->
<g id="edge1_Node000001_Node000002" class="edge">
<title>Node2&#45;&gt;Node1</title>
<g id="a_edge1_Node000001_Node000002"><a xlink:title=" ">
<path fill="none" stroke="#63b8ff" d="M55.54,-76.89C75.41,-63.38 104.02,-43.93 123.45,-30.73"/>
<polygon fill="#63b8ff" stroke="#63b8ff" points="53.59,-73.98 47.29,-82.49 57.53,-79.77 53.59,-73.98"/>
</a>
</g>
</g>
<!-- Node3 -->
<g id="Node000003" class="node">
<title>Node3</title>
<g id="a_Node000003"><a xlink:href="classuser_input_parameters__cp.html" target="_top" xlink:title=" ">
<polygon fill="white" stroke="#bfbfbf" points="206,-103 83.5,-103 83.5,-83.75 206,-83.75 206,-103"/>
<text xml:space="preserve" text-anchor="middle" x="144.75" y="-89.5" font-family="Helvetica,sans-Serif" font-size="10.00">userInputParameters_cp</text>
</a>
</g>
</g>
<!-- Node3&#45;&gt;Node1 -->
<g id="edge2_Node000001_Node000003" class="edge">
<title>Node3&#45;&gt;Node1</title>
<g id="a_edge2_Node000001_Node000003"><a xlink:title=" ">
<path fill="none" stroke="#9a32cd" stroke-dasharray="5,2" d="M144.75,-72.22C144.75,-59.17 144.75,-42.48 144.75,-30.73"/>
<polygon fill="#9a32cd" stroke="#9a32cd" points="141.25,-71.83 144.75,-81.83 148.25,-71.83 141.25,-71.83"/>
</a>
</g>
<text xml:space="preserve" text-anchor="start" x="147.75" y="-53.25" font-family="Helvetica,sans-Serif" font-size="10.00" fill="grey">userInputs_cp</text>
</g>
<!-- Node4 -->
<g id="Node000004" class="node">
<title>Node4</title>
<g id="a_Node000004"><a xlink:href="classvariable_attribute_loader.html" target="_top" xlink:title=" ">
<polygon fill="white" stroke="#bfbfbf" points="339.62,-103 223.88,-103 223.88,-83.75 339.62,-83.75 339.62,-103"/>
<text xml:space="preserve" text-anchor="middle" x="281.75" y="-89.5" font-family="Helvetica,sans-Serif" font-size="10.00">variableAttributeLoader</text>
</a>
</g>
</g>
<!-- Node4&#45;&gt;Node1 -->
<g id="edge3_Node000001_Node000004" class="edge">
<title>Node4&#45;&gt;Node1</title>
<g id="a_edge3_Node000001_Node000004"><a xlink:title=" ">
<path fill="none" stroke="#9a32cd" stroke-dasharray="5,2" d="M260.62,-76.75C248.19,-67.91 231.96,-56.96 216.75,-48.5 205.38,-42.18 192.53,-36.11 180.87,-30.97"/>
<polygon fill="#9a32cd" stroke="#9a32cd" points="258.31,-79.4 268.47,-82.42 262.41,-73.73 258.31,-79.4"/>
</a>
</g>
<text xml:space="preserve" text-anchor="start" x="247.22" y="-53.25" font-family="Helvetica,sans-Serif" font-size="10.00" fill="grey">var_attributes</text>
</g>
<!-- Node5 -->
<g id="Node000005" class="node">
<title>Node5</title>
<g id="a_Node000005"><a xlink:href="class_equation_dependency_parser.html" target="_top" xlink:title=" ">
<polygon fill="white" stroke="#666666" points="350.5,-190.75 213,-190.75 213,-171.5 350.5,-171.5 350.5,-190.75"/>
<text xml:space="preserve" text-anchor="middle" x="281.75" y="-177.25" font-family="Helvetica,sans-Serif" font-size="10.00">EquationDependencyParser</text>
</a>
</g>
</g>
<!-- Node5&#45;&gt;Node4 -->
<g id="edge4_Node000004_Node000005" class="edge">
<title>Node5&#45;&gt;Node4</title>
<g id="a_edge4_Node000004_Node000005"><a xlink:title=" ">
<path fill="none" stroke="#9a32cd" stroke-dasharray="5,2" d="M281.75,-159.79C281.75,-141.86 281.75,-116.58 281.75,-103.31"/>
<polygon fill="#9a32cd" stroke="#9a32cd" points="278.25,-159.76 281.75,-169.76 285.25,-159.76 278.25,-159.76"/>
</a>
</g>
<text xml:space="preserve" text-anchor="start" x="284.75" y="-141" font-family="Helvetica,sans-Serif" font-size="10.00" fill="grey">equation_dependency</text>
<text xml:space="preserve" text-anchor="start" x="284.75" y="-125.75" font-family="Helvetica,sans-Serif" font-size="10.00" fill="grey">  _parser</text>
</g>
</g>
</svg>
