<?xml version="1.0" encoding="UTF-8" standalone="no"?>
<!DOCTYPE svg PUBLIC "-//W3C//DTD SVG 1.1//EN"
 "http://www.w3.org/Graphics/SVG/1.1/DTD/svg11.dtd">
<!-- Generated by graphviz version 13.1.2 (20250808.2320)
 -->
<!-- Title: PRISMS::von_mises&lt; VarContainer &gt; Pages: 1 -->
<svg width="333pt" height="102pt"
 viewBox="0.00 0.00 333.00 102.00" xmlns="http://www.w3.org/2000/svg" xmlns:xlink="http://www.w3.org/1999/xlink">
<g id="graph0" class="graph" transform="scale(1 1) rotate(0) translate(4 97.5)">
<title>PRISMS::von_mises&lt; VarContainer &gt;</title>
<!-- Node1 -->
<g id="Node000001" class="node">
<title>Node1</title>
<g id="a_Node000001"><a xlink:title=" ">
<polygon fill="#999999" stroke="#666666" points="324.5,-61.5 210.25,-61.5 210.25,-31 324.5,-31 324.5,-61.5"/>
<text xml:space="preserve" text-anchor="start" x="218.25" y="-48" font-family="Helvetica,sans-Serif" font-size="10.00">PRISMS::von_mises&lt;</text>
<text xml:space="preserve" text-anchor="middle" x="267.38" y="-36.75" font-family="Helvetica,sans-Serif" font-size="10.00"> VarContainer &gt;</text>
</a>
</g>
</g>
<!-- Node2 -->
<g id="Node000002" class="node">
<title>Node2</title>
<g id="a_Node000002"><a xlink:href="class_p_r_i_s_m_s_1_1_p_func_base.html" target="_top" xlink:title=" ">
<polygon fill="white" stroke="#666666" points="121,-93.5 3,-93.5 3,-63 121,-63 121,-93.5"/>
<text xml:space="preserve" text-anchor="start" x="11" y="-80" font-family="Helvetica,sans-Serif" font-size="10.00">PRISMS::PFuncBase&lt;</text>
<text xml:space="preserve" text-anchor="middle" x="62" y="-68.75" font-family="Helvetica,sans-Serif" font-size="10.00"> VarContainer, double &gt;</text>
</a>
</g>
</g>
<!-- Node2&#45;&gt;Node1 -->
<g id="edge1_Node000001_Node000002" class="edge">
<title>Node2&#45;&gt;Node1</title>
<g id="a_edge1_Node000001_Node000002"><a xlink:title=" ">
<path fill="none" stroke="#63b8ff" d="M132.65,-72.39C152.02,-70.3 173.01,-67.61 192.25,-64.25 197.99,-63.25 203.95,-62.06 209.88,-60.77"/>
<polygon fill="#63b8ff" stroke="#63b8ff" points="132.55,-68.88 122.96,-73.39 133.27,-75.84 132.55,-68.88"/>
</a>
</g>
</g>
<!-- Node3 -->
<g id="Node000003" class="node">
<title>Node3</title>
<g id="a_Node000003"><a xlink:href="class_p_r_i_s_m_s_1_1_p_simple_base.html" target="_top" xlink:title=" ">
<polygon fill="white" stroke="#666666" points="124,-30.5 0,-30.5 0,0 124,0 124,-30.5"/>
<text xml:space="preserve" text-anchor="start" x="8" y="-17" font-family="Helvetica,sans-Serif" font-size="10.00">PRISMS::PSimpleBase</text>
<text xml:space="preserve" text-anchor="middle" x="62" y="-5.75" font-family="Helvetica,sans-Serif" font-size="10.00">&lt; VarContainer, double &gt;</text>
</a>
</g>
</g>
<!-- Node3&#45;&gt;Node1 -->
<g id="edge2_Node000001_Node000003" class="edge">
<title>Node3&#45;&gt;Node1</title>
<g id="a_edge2_Node000001_Node000003"><a xlink:title=" ">
<path fill="none" stroke="#9a32cd" stroke-dasharray="5,2" d="M135.68,-11.24C154.26,-11.49 174.11,-12.91 192.25,-16.5 206.67,-19.36 221.85,-24.95 234.7,-30.52"/>
<polygon fill="#9a32cd" stroke="#9a32cd" points="135.82,-7.74 125.81,-11.22 135.8,-14.74 135.82,-7.74"/>
</a>
</g>
<text xml:space="preserve" text-anchor="start" x="145" y="-51.75" font-family="Helvetica,sans-Serif" font-size="10.00" fill="grey">_grad_val</text>
<text xml:space="preserve" text-anchor="start" x="145" y="-36.5" font-family="Helvetica,sans-Serif" font-size="10.00" fill="grey">_hess_val</text>
<text xml:space="preserve" text-anchor="start" x="145" y="-21.25" font-family="Helvetica,sans-Serif" font-size="10.00" fill="grey">_val</text>
</g>
</g>
</svg>
