<?xml version="1.0" encoding="UTF-8" standalone="no"?>
<!DOCTYPE svg PUBLIC "-//W3C//DTD SVG 1.1//EN"
 "http://www.w3.org/Graphics/SVG/1.1/DTD/svg11.dtd">
<!-- Generated by graphviz version 13.1.2 (20250808.2320)
 -->
<!-- Title: InitialConditionPField&lt; dim &gt; Pages: 1 -->
<svg width="268pt" height="190pt"
 viewBox="0.00 0.00 268.00 190.00" xmlns="http://www.w3.org/2000/svg" xmlns:xlink="http://www.w3.org/1999/xlink">
<g id="graph0" class="graph" transform="scale(1 1) rotate(0) translate(4 185.75)">
<title>InitialConditionPField&lt; dim &gt;</title>
<!-- Node1 -->
<g id="Node000001" class="node">
<title>Node1</title>
<g id="a_Node000001"><a xlink:title=" ">
<polygon fill="#999999" stroke="#666666" points="155,-30.5 46.75,-30.5 46.75,0 155,0 155,-30.5"/>
<text xml:space="preserve" text-anchor="start" x="54.75" y="-17" font-family="Helvetica,sans-Serif" font-size="10.00">InitialConditionPField</text>
<text xml:space="preserve" text-anchor="middle" x="100.88" y="-5.75" font-family="Helvetica,sans-Serif" font-size="10.00">&lt; dim &gt;</text>
</a>
</g>
</g>
<!-- Node2 -->
<g id="Node000002" class="node">
<title>Node2</title>
<g id="a_Node000002"><a xlink:title=" ">
<polygon fill="white" stroke="#bfbfbf" points="115.75,-108.62 0,-108.62 0,-89.38 115.75,-89.38 115.75,-108.62"/>
<text xml:space="preserve" text-anchor="middle" x="57.88" y="-95.12" font-family="Helvetica,sans-Serif" font-size="10.00">dealii::Function&lt; dim &gt;</text>
</a>
</g>
</g>
<!-- Node2&#45;&gt;Node1 -->
<g id="edge1_Node000001_Node000002" class="edge">
<title>Node2&#45;&gt;Node1</title>
<g id="a_edge1_Node000001_Node000002"><a xlink:title=" ">
<path fill="none" stroke="#63b8ff" d="M67.9,-78.95C75.62,-64.27 86.13,-44.29 93.19,-30.86"/>
<polygon fill="#63b8ff" stroke="#63b8ff" points="64.9,-77.12 63.35,-87.6 71.1,-80.38 64.9,-77.12"/>
</a>
</g>
</g>
<!-- Node3 -->
<g id="Node000003" class="node">
<title>Node3</title>
<g id="a_Node000003"><a xlink:href="class_p_r_i_s_m_s_1_1_p_field.html" target="_top" xlink:title=" ">
<polygon fill="white" stroke="#666666" points="260,-114.25 133.75,-114.25 133.75,-83.75 260,-83.75 260,-114.25"/>
<text xml:space="preserve" text-anchor="start" x="141.75" y="-100.75" font-family="Helvetica,sans-Serif" font-size="10.00">PRISMS::PField&lt; double</text>
<text xml:space="preserve" text-anchor="middle" x="196.88" y="-89.5" font-family="Helvetica,sans-Serif" font-size="10.00"> *, double, dim &gt;</text>
</a>
</g>
</g>
<!-- Node3&#45;&gt;Node1 -->
<g id="edge2_Node000001_Node000003" class="edge">
<title>Node3&#45;&gt;Node1</title>
<g id="a_edge2_Node000001_Node000003"><a xlink:title=" ">
<path fill="none" stroke="#9a32cd" stroke-dasharray="5,2" d="M171.37,-76.28C154.45,-61.88 132.72,-43.37 117.89,-30.74"/>
<polygon fill="#9a32cd" stroke="#9a32cd" points="168.68,-78.58 178.56,-82.4 173.22,-73.26 168.68,-78.58"/>
</a>
</g>
<text xml:space="preserve" text-anchor="start" x="160.47" y="-53.25" font-family="Helvetica,sans-Serif" font-size="10.00" fill="grey">inputField</text>
</g>
<!-- Node4 -->
<g id="Node000004" class="node">
<title>Node4</title>
<g id="a_Node000004"><a xlink:href="class_p_r_i_s_m_s_1_1_p_func_base.html" target="_top" xlink:title=" ">
<polygon fill="white" stroke="#666666" points="255.88,-181.75 137.88,-181.75 137.88,-151.25 255.88,-151.25 255.88,-181.75"/>
<text xml:space="preserve" text-anchor="start" x="145.88" y="-168.25" font-family="Helvetica,sans-Serif" font-size="10.00">PRISMS::PFuncBase&lt;</text>
<text xml:space="preserve" text-anchor="middle" x="196.88" y="-157" font-family="Helvetica,sans-Serif" font-size="10.00"> double *, double &gt;</text>
</a>
</g>
</g>
<!-- Node4&#45;&gt;Node3 -->
<g id="edge3_Node000003_Node000004" class="edge">
<title>Node4&#45;&gt;Node3</title>
<g id="a_edge3_Node000003_Node000004"><a xlink:title=" ">
<path fill="none" stroke="#63b8ff" d="M196.88,-139.59C196.88,-131.05 196.88,-121.87 196.88,-114.5"/>
<polygon fill="#63b8ff" stroke="#63b8ff" points="193.38,-139.45 196.88,-149.45 200.38,-139.45 193.38,-139.45"/>
</a>
</g>
</g>
</g>
</svg>
