<?xml version="1.0" encoding="UTF-8" standalone="no"?>
<!DOCTYPE svg PUBLIC "-//W3C//DTD SVG 1.1//EN"
 "http://www.w3.org/Graphics/SVG/1.1/DTD/svg11.dtd">
<!-- Generated by graphviz version 13.1.2 (20250808.2320)
 -->
<!-- Title: PRISMS::PSimpleBase&lt; VarContainer, OutType &gt; Pages: 1 -->
<svg width="331pt" height="88pt"
 viewBox="0.00 0.00 331.00 88.00" xmlns="http://www.w3.org/2000/svg" xmlns:xlink="http://www.w3.org/1999/xlink">
<g id="graph0" class="graph" transform="scale(1 1) rotate(0) translate(4 83.5)">
<title>PRISMS::PSimpleBase&lt; VarContainer, OutType &gt;</title>
<!-- Node1 -->
<g id="Node000001" class="node">
<title>Node1</title>
<g id="a_Node000001"><a xlink:title=" ">
<polygon fill="#999999" stroke="#666666" points="132.25,-54.5 0,-54.5 0,-24 132.25,-24 132.25,-54.5"/>
<text xml:space="preserve" text-anchor="start" x="8" y="-41" font-family="Helvetica,sans-Serif" font-size="10.00">PRISMS::PSimpleBase</text>
<text xml:space="preserve" text-anchor="middle" x="66.12" y="-29.75" font-family="Helvetica,sans-Serif" font-size="10.00">&lt; VarContainer, OutType &gt;</text>
</a>
</g>
</g>
<!-- Node2 -->
<g id="Node000002" class="node">
<title>Node2</title>
<g id="a_Node000002"><a xlink:href="class_p_r_i_s_m_s_1_1_p_piece_wise_simple_base.html" target="_top" xlink:title=" ">
<polygon fill="white" stroke="#666666" points="323,-79.5 168.25,-79.5 168.25,-49 323,-49 323,-79.5"/>
<text xml:space="preserve" text-anchor="start" x="176.25" y="-66" font-family="Helvetica,sans-Serif" font-size="10.00">PRISMS::PPieceWiseSimple</text>
<text xml:space="preserve" text-anchor="middle" x="245.62" y="-54.75" font-family="Helvetica,sans-Serif" font-size="10.00">Base&lt; VarContainer, OutType &gt;</text>
</a>
</g>
</g>
<!-- Node1&#45;&gt;Node2 -->
<g id="edge1_Node000001_Node000002" class="edge">
<title>Node1&#45;&gt;Node2</title>
<g id="a_edge1_Node000001_Node000002"><a xlink:title=" ">
<path fill="none" stroke="#63b8ff" d="M143.87,-50.06C151.83,-51.18 159.94,-52.32 167.9,-53.44"/>
<polygon fill="#63b8ff" stroke="#63b8ff" points="144.6,-46.63 134.21,-48.7 143.63,-53.56 144.6,-46.63"/>
</a>
</g>
</g>
<!-- Node3 -->
<g id="Node000003" class="node">
<title>Node3</title>
<g id="a_Node000003"><a xlink:href="class_p_r_i_s_m_s_1_1_simple_piece.html" target="_top" xlink:title=" ">
<polygon fill="white" stroke="#666666" points="311.75,-30.5 179.5,-30.5 179.5,0 311.75,0 311.75,-30.5"/>
<text xml:space="preserve" text-anchor="start" x="187.5" y="-17" font-family="Helvetica,sans-Serif" font-size="10.00">PRISMS::SimplePiece</text>
<text xml:space="preserve" text-anchor="middle" x="245.62" y="-5.75" font-family="Helvetica,sans-Serif" font-size="10.00">&lt; VarContainer, OutType &gt;</text>
</a>
</g>
</g>
<!-- Node1&#45;&gt;Node3 -->
<g id="edge2_Node000001_Node000003" class="edge">
<title>Node1&#45;&gt;Node3</title>
<g id="a_edge2_Node000001_Node000003"><a xlink:title=" ">
<path fill="none" stroke="#63b8ff" d="M143.84,-28.88C155.55,-27.29 167.56,-25.67 179.01,-24.12"/>
<polygon fill="#63b8ff" stroke="#63b8ff" points="143.66,-25.37 134.22,-30.18 144.59,-32.31 143.66,-25.37"/>
</a>
</g>
</g>
</g>
</svg>
