<?xml version="1.0" encoding="UTF-8" standalone="no"?>
<!DOCTYPE svg PUBLIC "-//W3C//DTD SVG 1.1//EN"
 "http://www.w3.org/Graphics/SVG/1.1/DTD/svg11.dtd">
<!-- Generated by graphviz version 13.1.2 (20250808.2320)
 -->
<!-- Title: crystalPlasticity&lt; dim &gt; Pages: 1 -->
<svg width="146pt" height="149pt"
 viewBox="0.00 0.00 146.00 149.00" xmlns="http://www.w3.org/2000/svg" xmlns:xlink="http://www.w3.org/1999/xlink">
<g id="graph0" class="graph" transform="scale(1 1) rotate(0) translate(4 145)">
<title>crystalPlasticity&lt; dim &gt;</title>
<!-- Node1 -->
<g id="Node000001" class="node">
<title>Node1</title>
<g id="a_Node000001"><a xlink:title=" ">
<polygon fill="#999999" stroke="#666666" points="114.62,-30.5 22.88,-30.5 22.88,0 114.62,0 114.62,-30.5"/>
<text xml:space="preserve" text-anchor="start" x="30.88" y="-17" font-family="Helvetica,sans-Serif" font-size="10.00">crystalPlasticity&lt;</text>
<text xml:space="preserve" text-anchor="middle" x="68.75" y="-5.75" font-family="Helvetica,sans-Serif" font-size="10.00"> dim &gt;</text>
</a>
</g>
</g>
<!-- Node2 -->
<g id="Node000002" class="node">
<title>Node2</title>
<g id="a_Node000002"><a xlink:href="class_multi_physics_b_v_p.html" target="_top" xlink:title=" ">
<polygon fill="white" stroke="#bfbfbf" points="137.5,-85.75 0,-85.75 0,-66.5 137.5,-66.5 137.5,-85.75"/>
<text xml:space="preserve" text-anchor="middle" x="68.75" y="-72.25" font-family="Helvetica,sans-Serif" font-size="10.00">MultiPhysicsBVP&lt; dim, 1 &gt;</text>
</a>
</g>
</g>
<!-- Node2&#45;&gt;Node1 -->
<g id="edge1_Node000001_Node000002" class="edge">
<title>Node2&#45;&gt;Node1</title>
<g id="a_edge1_Node000001_Node000002"><a xlink:title=" ">
<path fill="none" stroke="#63b8ff" d="M68.75,-54.92C68.75,-46.99 68.75,-38.06 68.75,-30.78"/>
<polygon fill="#63b8ff" stroke="#63b8ff" points="65.25,-54.67 68.75,-64.67 72.25,-54.67 65.25,-54.67"/>
</a>
</g>
</g>
<!-- Node3 -->
<g id="Node000003" class="node">
<title>Node3</title>
<g id="a_Node000003"><a xlink:title=" ">
<polygon fill="white" stroke="#bfbfbf" points="101.5,-141 36,-141 36,-121.75 101.5,-121.75 101.5,-141"/>
<text xml:space="preserve" text-anchor="middle" x="68.75" y="-127.5" font-family="Helvetica,sans-Serif" font-size="10.00">Subscriptor</text>
</a>
</g>
</g>
<!-- Node3&#45;&gt;Node2 -->
<g id="edge2_Node000002_Node000003" class="edge">
<title>Node3&#45;&gt;Node2</title>
<g id="a_edge2_Node000002_Node000003"><a xlink:title=" ">
<path fill="none" stroke="#63b8ff" d="M68.75,-110.13C68.75,-101.84 68.75,-92.67 68.75,-86.11"/>
<polygon fill="#63b8ff" stroke="#63b8ff" points="65.25,-110.07 68.75,-120.07 72.25,-110.07 65.25,-110.07"/>
</a>
</g>
</g>
</g>
</svg>
