<?xml version="1.0" encoding="UTF-8" standalone="no"?>
<!DOCTYPE svg PUBLIC "-//W3C//DTD SVG 1.1//EN"
 "http://www.w3.org/Graphics/SVG/1.1/DTD/svg11.dtd">
<!-- Generated by graphviz version 13.1.2 (20250808.2320)
 -->
<!-- Title: userInputParameters_pf&lt; dim &gt; Pages: 1 -->
<svg width="332pt" height="167pt"
 viewBox="0.00 0.00 332.00 167.00" xmlns="http://www.w3.org/2000/svg" xmlns:xlink="http://www.w3.org/1999/xlink">
<g id="graph0" class="graph" transform="scale(1 1) rotate(0) translate(4 163.25)">
<title>userInputParameters_pf&lt; dim &gt;</title>
<!-- Node1 -->
<g id="Node000001" class="node">
<title>Node1</title>
<g id="a_Node000001"><a xlink:title=" ">
<polygon fill="#999999" stroke="#666666" points="186.5,-30.5 79.75,-30.5 79.75,0 186.5,0 186.5,-30.5"/>
<text xml:space="preserve" text-anchor="start" x="87.75" y="-17" font-family="Helvetica,sans-Serif" font-size="10.00">userInputParameters</text>
<text xml:space="preserve" text-anchor="middle" x="133.12" y="-5.75" font-family="Helvetica,sans-Serif" font-size="10.00">_pf&lt; dim &gt;</text>
</a>
</g>
</g>
<!-- Node2 -->
<g id="Node000002" class="node">
<title>Node2</title>
<g id="a_Node000002"><a xlink:href="class_linear_solver_parameters.html" target="_top" xlink:title=" ">
<polygon fill="white" stroke="#666666" points="120.25,-103 0,-103 0,-83.75 120.25,-83.75 120.25,-103"/>
<text xml:space="preserve" text-anchor="middle" x="60.12" y="-89.5" font-family="Helvetica,sans-Serif" font-size="10.00">LinearSolverParameters</text>
</a>
</g>
</g>
<!-- Node2&#45;&gt;Node1 -->
<g id="edge1_Node000001_Node000002" class="edge">
<title>Node2&#45;&gt;Node1</title>
<g id="a_edge1_Node000001_Node000002"><a xlink:title=" ">
<path fill="none" stroke="#9a32cd" stroke-dasharray="5,2" d="M59.61,-71.96C60.35,-63.98 62.42,-55.17 67.38,-48.5 72.84,-41.15 80.43,-35.39 88.52,-30.9"/>
<polygon fill="#9a32cd" stroke="#9a32cd" points="56.12,-71.79 59.37,-81.87 63.11,-71.96 56.12,-71.79"/>
</a>
</g>
<text xml:space="preserve" text-anchor="start" x="70.38" y="-53.25" font-family="Helvetica,sans-Serif" font-size="10.00" fill="grey">linear_solver_parameters</text>
</g>
<!-- Node3 -->
<g id="Node000003" class="node">
<title>Node3</title>
<g id="a_Node000003"><a xlink:href="class_solver_parameters_base.html" target="_top" xlink:title=" ">
<polygon fill="white" stroke="#666666" points="190.38,-159.25 73.88,-159.25 73.88,-140 190.38,-140 190.38,-159.25"/>
<text xml:space="preserve" text-anchor="middle" x="132.12" y="-145.75" font-family="Helvetica,sans-Serif" font-size="10.00">SolverParametersBase</text>
</a>
</g>
</g>
<!-- Node3&#45;&gt;Node2 -->
<g id="edge2_Node000002_Node000003" class="edge">
<title>Node3&#45;&gt;Node2</title>
<g id="a_edge2_Node000002_Node000003"><a xlink:title=" ">
<path fill="none" stroke="#63b8ff" d="M111.17,-132.84C98.35,-123.17 82.41,-111.17 71.79,-103.17"/>
<polygon fill="#63b8ff" stroke="#63b8ff" points="108.93,-135.53 119.03,-138.76 113.15,-129.94 108.93,-135.53"/>
</a>
</g>
</g>
<!-- Node4 -->
<g id="Node000004" class="node">
<title>Node4</title>
<g id="a_Node000004"><a xlink:href="class_nonlinear_solver_parameters.html" target="_top" xlink:title=" ">
<polygon fill="white" stroke="#666666" points="273.75,-103 138.5,-103 138.5,-83.75 273.75,-83.75 273.75,-103"/>
<text xml:space="preserve" text-anchor="middle" x="206.12" y="-89.5" font-family="Helvetica,sans-Serif" font-size="10.00">NonlinearSolverParameters</text>
</a>
</g>
</g>
<!-- Node3&#45;&gt;Node4 -->
<g id="edge4_Node000004_Node000003" class="edge">
<title>Node3&#45;&gt;Node4</title>
<g id="a_edge4_Node000004_Node000003"><a xlink:title=" ">
<path fill="none" stroke="#63b8ff" d="M153.6,-132.88C166.69,-123.28 182.96,-111.36 193.89,-103.35"/>
<polygon fill="#63b8ff" stroke="#63b8ff" points="151.56,-130.04 145.57,-138.77 155.7,-135.68 151.56,-130.04"/>
</a>
</g>
</g>
<!-- Node4&#45;&gt;Node1 -->
<g id="edge3_Node000001_Node000004" class="edge">
<title>Node4&#45;&gt;Node1</title>
<g id="a_edge3_Node000001_Node000004"><a xlink:title=" ">
<path fill="none" stroke="#9a32cd" stroke-dasharray="5,2" d="M198.08,-73.02C194.08,-64.85 188.68,-55.62 182.12,-48.5 175.91,-41.76 168.01,-35.77 160.38,-30.84"/>
<polygon fill="#9a32cd" stroke="#9a32cd" points="194.88,-74.43 202.17,-82.12 201.27,-71.57 194.88,-74.43"/>
</a>
</g>
<text xml:space="preserve" text-anchor="start" x="196.95" y="-53.25" font-family="Helvetica,sans-Serif" font-size="10.00" fill="grey">nonlinear_solver_parameters</text>
</g>
</g>
</svg>
