<?xml version="1.0" encoding="UTF-8" standalone="no"?>
<!DOCTYPE svg PUBLIC "-//W3C//DTD SVG 1.1//EN"
 "http://www.w3.org/Graphics/SVG/1.1/DTD/svg11.dtd">
<!-- Generated by graphviz version 13.1.2 (20250808.2320)
 -->
<!-- Title: PRISMS::linear_hardening&lt; VarContainer &gt; Pages: 1 -->
<svg width="350pt" height="102pt"
 viewBox="0.00 0.00 350.00 102.00" xmlns="http://www.w3.org/2000/svg" xmlns:xlink="http://www.w3.org/1999/xlink">
<g id="graph0" class="graph" transform="scale(1 1) rotate(0) translate(4 97.5)">
<title>PRISMS::linear_hardening&lt; VarContainer &gt;</title>
<!-- Node1 -->
<g id="Node000001" class="node">
<title>Node1</title>
<g id="a_Node000001"><a xlink:title=" ">
<polygon fill="#999999" stroke="#666666" points="341.75,-61.5 210.25,-61.5 210.25,-31 341.75,-31 341.75,-61.5"/>
<text xml:space="preserve" text-anchor="start" x="218.25" y="-48" font-family="Helvetica,sans-Serif" font-size="10.00">PRISMS::linear_hardening</text>
<text xml:space="preserve" text-anchor="middle" x="276" y="-36.75" font-family="Helvetica,sans-Serif" font-size="10.00">&lt; VarContainer &gt;</text>
</a>
</g>
</g>
<!-- Node2 -->
<g id="Node000002" class="node">
<title>Node2</title>
<g id="a_Node000002"><a xlink:href="class_p_r_i_s_m_s_1_1_p_func_base.html" target="_top" xlink:title=" ">
<polygon fill="white" stroke="#666666" points="121,-93.5 3,-93.5 3,-63 121,-63 121,-93.5"/>
<text xml:space="preserve" text-anchor="start" x="11" y="-80" font-family="Helvetica,sans-Serif" font-size="10.00">PRISMS::PFuncBase&lt;</text>
<text xml:space="preserve" text-anchor="middle" x="62" y="-68.75" font-family="Helvetica,sans-Serif" font-size="10.00"> VarContainer, double &gt;</text>
</a>
</g>
</g>
<!-- Node2&#45;&gt;Node1 -->
<g id="edge1_Node000001_Node000002" class="edge">
<title>Node2&#45;&gt;Node1</title>
<g id="a_edge1_Node000001_Node000002"><a xlink:title=" ">
<path fill="none" stroke="#63b8ff" d="M132.6,-72.08C151.97,-70 172.97,-67.38 192.25,-64.25 198.05,-63.31 204.07,-62.22 210.08,-61.06"/>
<polygon fill="#63b8ff" stroke="#63b8ff" points="132.49,-68.58 122.91,-73.1 133.22,-75.54 132.49,-68.58"/>
</a>
</g>
</g>
<!-- Node3 -->
<g id="Node000003" class="node">
<title>Node3</title>
<g id="a_Node000003"><a xlink:href="class_p_r_i_s_m_s_1_1_p_simple_base.html" target="_top" xlink:title=" ">
<polygon fill="white" stroke="#666666" points="124,-30.5 0,-30.5 0,0 124,0 124,-30.5"/>
<text xml:space="preserve" text-anchor="start" x="8" y="-17" font-family="Helvetica,sans-Serif" font-size="10.00">PRISMS::PSimpleBase</text>
<text xml:space="preserve" text-anchor="middle" x="62" y="-5.75" font-family="Helvetica,sans-Serif" font-size="10.00">&lt; VarContainer, double &gt;</text>
</a>
</g>
</g>
<!-- Node3&#45;&gt;Node1 -->
<g id="edge2_Node000001_Node000003" class="edge">
<title>Node3&#45;&gt;Node1</title>
<g id="a_edge2_Node000001_Node000003"><a xlink:title=" ">
<path fill="none" stroke="#9a32cd" stroke-dasharray="5,2" d="M135.59,-11.69C154.18,-11.94 174.05,-13.24 192.25,-16.5 208.18,-19.36 225.1,-24.95 239.47,-30.52"/>
<polygon fill="#9a32cd" stroke="#9a32cd" points="135.73,-8.19 125.72,-11.67 135.72,-15.19 135.73,-8.19"/>
</a>
</g>
<text xml:space="preserve" text-anchor="start" x="145" y="-51.75" font-family="Helvetica,sans-Serif" font-size="10.00" fill="grey">_grad_val</text>
<text xml:space="preserve" text-anchor="start" x="145" y="-36.5" font-family="Helvetica,sans-Serif" font-size="10.00" fill="grey">_hess_val</text>
<text xml:space="preserve" text-anchor="start" x="145" y="-21.25" font-family="Helvetica,sans-Serif" font-size="10.00" fill="grey">_val</text>
</g>
</g>
</svg>
