<?xml version="1.0" encoding="UTF-8" standalone="no"?>
<!DOCTYPE svg PUBLIC "-//W3C//DTD SVG 1.1//EN"
 "http://www.w3.org/Graphics/SVG/1.1/DTD/svg11.dtd">
<!-- Generated by graphviz version 13.1.2 (20250808.2320)
 -->
<!-- Title: crystalPlasticity&lt; dim &gt; Pages: 1 -->
<svg width="390pt" height="271pt"
 viewBox="0.00 0.00 390.00 271.00" xmlns="http://www.w3.org/2000/svg" xmlns:xlink="http://www.w3.org/1999/xlink">
<g id="graph0" class="graph" transform="scale(1 1) rotate(0) translate(4 267.25)">
<title>crystalPlasticity&lt; dim &gt;</title>
<!-- Node1 -->
<g id="Node000001" class="node">
<title>Node1</title>
<g id="a_Node000001"><a xlink:title=" ">
<polygon fill="#999999" stroke="#666666" points="257.62,-30.5 165.88,-30.5 165.88,0 257.62,0 257.62,-30.5"/>
<text xml:space="preserve" text-anchor="start" x="173.88" y="-17" font-family="Helvetica,sans-Serif" font-size="10.00">crystalPlasticity&lt;</text>
<text xml:space="preserve" text-anchor="middle" x="211.75" y="-5.75" font-family="Helvetica,sans-Serif" font-size="10.00"> dim &gt;</text>
</a>
</g>
</g>
<!-- Node2 -->
<g id="Node000002" class="node">
<title>Node2</title>
<g id="a_Node000002"><a xlink:href="class_multi_physics_b_v_p.html" target="_top" xlink:title=" ">
<polygon fill="white" stroke="#bfbfbf" points="213.5,-103 76,-103 76,-83.75 213.5,-83.75 213.5,-103"/>
<text xml:space="preserve" text-anchor="middle" x="144.75" y="-89.5" font-family="Helvetica,sans-Serif" font-size="10.00">MultiPhysicsBVP&lt; dim, 1 &gt;</text>
</a>
</g>
</g>
<!-- Node2&#45;&gt;Node1 -->
<g id="edge1_Node000001_Node000002" class="edge">
<title>Node2&#45;&gt;Node1</title>
<g id="a_edge1_Node000001_Node000002"><a xlink:title=" ">
<path fill="none" stroke="#63b8ff" d="M160.05,-74.99C171.83,-61.61 187.92,-43.32 199.01,-30.73"/>
<polygon fill="#63b8ff" stroke="#63b8ff" points="157.68,-72.39 153.7,-82.21 162.93,-77.01 157.68,-72.39"/>
</a>
</g>
</g>
<!-- Node3 -->
<g id="Node000003" class="node">
<title>Node3</title>
<g id="a_Node000003"><a xlink:title=" ">
<polygon fill="white" stroke="#bfbfbf" points="65.5,-175.5 0,-175.5 0,-156.25 65.5,-156.25 65.5,-175.5"/>
<text xml:space="preserve" text-anchor="middle" x="32.75" y="-162" font-family="Helvetica,sans-Serif" font-size="10.00">Subscriptor</text>
</a>
</g>
</g>
<!-- Node3&#45;&gt;Node2 -->
<g id="edge2_Node000002_Node000003" class="edge">
<title>Node3&#45;&gt;Node2</title>
<g id="a_edge2_Node000002_Node000003"><a xlink:title=" ">
<path fill="none" stroke="#63b8ff" d="M56.39,-150C78.76,-135.91 111.62,-115.23 130.33,-103.45"/>
<polygon fill="#63b8ff" stroke="#63b8ff" points="54.81,-146.85 48.22,-155.14 58.54,-152.77 54.81,-146.85"/>
</a>
</g>
</g>
<!-- Node4 -->
<g id="Node000004" class="node">
<title>Node4</title>
<g id="a_Node000004"><a xlink:href="classuser_input_parameters__cp.html" target="_top" xlink:title=" ">
<polygon fill="white" stroke="#bfbfbf" points="206,-175.5 83.5,-175.5 83.5,-156.25 206,-156.25 206,-175.5"/>
<text xml:space="preserve" text-anchor="middle" x="144.75" y="-162" font-family="Helvetica,sans-Serif" font-size="10.00">userInputParameters_cp</text>
</a>
</g>
</g>
<!-- Node4&#45;&gt;Node2 -->
<g id="edge3_Node000002_Node000004" class="edge">
<title>Node4&#45;&gt;Node2</title>
<g id="a_edge3_Node000002_Node000004"><a xlink:title=" ">
<path fill="none" stroke="#9a32cd" stroke-dasharray="5,2" d="M144.75,-144.8C144.75,-131.19 144.75,-113.85 144.75,-103.45"/>
<polygon fill="#9a32cd" stroke="#9a32cd" points="141.25,-144.43 144.75,-154.43 148.25,-144.43 141.25,-144.43"/>
</a>
</g>
<text xml:space="preserve" text-anchor="start" x="147.75" y="-125.75" font-family="Helvetica,sans-Serif" font-size="10.00" fill="grey">userInputs_cp</text>
</g>
<!-- Node5 -->
<g id="Node000005" class="node">
<title>Node5</title>
<g id="a_Node000005"><a xlink:href="classvariable_attribute_loader.html" target="_top" xlink:title=" ">
<polygon fill="white" stroke="#bfbfbf" points="339.62,-175.5 223.88,-175.5 223.88,-156.25 339.62,-156.25 339.62,-175.5"/>
<text xml:space="preserve" text-anchor="middle" x="281.75" y="-162" font-family="Helvetica,sans-Serif" font-size="10.00">variableAttributeLoader</text>
</a>
</g>
</g>
<!-- Node5&#45;&gt;Node2 -->
<g id="edge4_Node000002_Node000005" class="edge">
<title>Node5&#45;&gt;Node2</title>
<g id="a_edge4_Node000002_Node000005"><a xlink:title=" ">
<path fill="none" stroke="#9a32cd" stroke-dasharray="5,2" d="M260.92,-149.25C248.29,-140.23 231.6,-129.11 215.75,-121 202.27,-114.11 186.57,-108.03 173.37,-103.44"/>
<polygon fill="#9a32cd" stroke="#9a32cd" points="258.72,-151.97 268.87,-155.04 262.85,-146.32 258.72,-151.97"/>
</a>
</g>
<text xml:space="preserve" text-anchor="start" x="246.84" y="-125.75" font-family="Helvetica,sans-Serif" font-size="10.00" fill="grey">var_attributes</text>
</g>
<!-- Node6 -->
<g id="Node000006" class="node">
<title>Node6</title>
<g id="a_Node000006"><a xlink:href="class_equation_dependency_parser.html" target="_top" xlink:title=" ">
<polygon fill="white" stroke="#666666" points="350.5,-263.25 213,-263.25 213,-244 350.5,-244 350.5,-263.25"/>
<text xml:space="preserve" text-anchor="middle" x="281.75" y="-249.75" font-family="Helvetica,sans-Serif" font-size="10.00">EquationDependencyParser</text>
</a>
</g>
</g>
<!-- Node6&#45;&gt;Node5 -->
<g id="edge5_Node000005_Node000006" class="edge">
<title>Node6&#45;&gt;Node5</title>
<g id="a_edge5_Node000005_Node000006"><a xlink:title=" ">
<path fill="none" stroke="#9a32cd" stroke-dasharray="5,2" d="M281.75,-232.29C281.75,-214.36 281.75,-189.08 281.75,-175.81"/>
<polygon fill="#9a32cd" stroke="#9a32cd" points="278.25,-232.26 281.75,-242.26 285.25,-232.26 278.25,-232.26"/>
</a>
</g>
<text xml:space="preserve" text-anchor="start" x="284.75" y="-213.5" font-family="Helvetica,sans-Serif" font-size="10.00" fill="grey">equation_dependency</text>
<text xml:space="preserve" text-anchor="start" x="284.75" y="-198.25" font-family="Helvetica,sans-Serif" font-size="10.00" fill="grey">  _parser</text>
</g>
<!-- Node7 -->
<g id="Node000007" class="node">
<title>Node7</title>
<g id="a_Node000007"><a xlink:href="structmaterial_properties.html" target="_top" xlink:title=" ">
<polygon fill="white" stroke="#bfbfbf" points="326.12,-103 231.38,-103 231.38,-83.75 326.12,-83.75 326.12,-103"/>
<text xml:space="preserve" text-anchor="middle" x="278.75" y="-89.5" font-family="Helvetica,sans-Serif" font-size="10.00">materialProperties</text>
</a>
</g>
</g>
<!-- Node7&#45;&gt;Node1 -->
<g id="edge6_Node000001_Node000007" class="edge">
<title>Node7&#45;&gt;Node1</title>
<g id="a_edge6_Node000001_Node000007"><a xlink:title=" ">
<path fill="none" stroke="#9a32cd" stroke-dasharray="5,2" d="M263.45,-74.99C251.67,-61.61 235.58,-43.32 224.49,-30.73"/>
<polygon fill="#9a32cd" stroke="#9a32cd" points="260.57,-77.01 269.8,-82.21 265.82,-72.39 260.57,-77.01"/>
</a>
</g>
<text xml:space="preserve" text-anchor="start" x="258.17" y="-53.25" font-family="Helvetica,sans-Serif" font-size="10.00" fill="grey">properties</text>
</g>
</g>
</svg>
