<?xml version="1.0" encoding="UTF-8" standalone="no"?>
<!DOCTYPE svg PUBLIC "-//W3C//DTD SVG 1.1//EN"
 "http://www.w3.org/Graphics/SVG/1.1/DTD/svg11.dtd">
<!-- Generated by graphviz version 13.1.2 (20250808.2320)
 -->
<!-- Title: continuumPlasticity&lt; dim &gt; Pages: 1 -->
<svg width="262pt" height="149pt"
 viewBox="0.00 0.00 262.00 149.00" xmlns="http://www.w3.org/2000/svg" xmlns:xlink="http://www.w3.org/1999/xlink">
<g id="graph0" class="graph" transform="scale(1 1) rotate(0) translate(4 145)">
<title>continuumPlasticity&lt; dim &gt;</title>
<!-- Node1 -->
<g id="Node000001" class="node">
<title>Node1</title>
<g id="a_Node000001"><a xlink:title=" ">
<polygon fill="#999999" stroke="#666666" points="167.62,-30.5 66.12,-30.5 66.12,0 167.62,0 167.62,-30.5"/>
<text xml:space="preserve" text-anchor="start" x="74.12" y="-17" font-family="Helvetica,sans-Serif" font-size="10.00">continuumPlasticity</text>
<text xml:space="preserve" text-anchor="middle" x="116.88" y="-5.75" font-family="Helvetica,sans-Serif" font-size="10.00">&lt; dim &gt;</text>
</a>
</g>
</g>
<!-- Node2 -->
<g id="Node000002" class="node">
<title>Node2</title>
<g id="a_Node000002"><a xlink:title=" ">
<polygon fill="white" stroke="#bfbfbf" points="97.75,-85.75 0,-85.75 0,-66.5 97.75,-66.5 97.75,-85.75"/>
<text xml:space="preserve" text-anchor="middle" x="48.88" y="-72.25" font-family="Helvetica,sans-Serif" font-size="10.00">ellipticBVP&lt; dim &gt;</text>
</a>
</g>
</g>
<!-- Node2&#45;&gt;Node1 -->
<g id="edge1_Node000001_Node000002" class="edge">
<title>Node2&#45;&gt;Node1</title>
<g id="a_edge1_Node000001_Node000002"><a xlink:title=" ">
<path fill="none" stroke="#63b8ff" d="M67.74,-58.79C77.89,-50.01 90.29,-39.27 100.09,-30.78"/>
<polygon fill="#63b8ff" stroke="#63b8ff" points="65.62,-56 60.35,-65.19 70.2,-61.29 65.62,-56"/>
</a>
</g>
</g>
<!-- Node3 -->
<g id="Node000003" class="node">
<title>Node3</title>
<g id="a_Node000003"><a xlink:href="class_multi_physics_b_v_p.html" target="_top" xlink:title=" ">
<polygon fill="white" stroke="#bfbfbf" points="253.62,-85.75 116.12,-85.75 116.12,-66.5 253.62,-66.5 253.62,-85.75"/>
<text xml:space="preserve" text-anchor="middle" x="184.88" y="-72.25" font-family="Helvetica,sans-Serif" font-size="10.00">MultiPhysicsBVP&lt; dim, 1 &gt;</text>
</a>
</g>
</g>
<!-- Node3&#45;&gt;Node1 -->
<g id="edge2_Node000001_Node000003" class="edge">
<title>Node3&#45;&gt;Node1</title>
<g id="a_edge2_Node000001_Node000003"><a xlink:title=" ">
<path fill="none" stroke="#63b8ff" d="M166.01,-58.79C155.86,-50.01 143.46,-39.27 133.66,-30.78"/>
<polygon fill="#63b8ff" stroke="#63b8ff" points="163.55,-61.29 173.4,-65.19 168.13,-56 163.55,-61.29"/>
</a>
</g>
</g>
<!-- Node4 -->
<g id="Node000004" class="node">
<title>Node4</title>
<g id="a_Node000004"><a xlink:title=" ">
<polygon fill="white" stroke="#bfbfbf" points="217.62,-141 152.12,-141 152.12,-121.75 217.62,-121.75 217.62,-141"/>
<text xml:space="preserve" text-anchor="middle" x="184.88" y="-127.5" font-family="Helvetica,sans-Serif" font-size="10.00">Subscriptor</text>
</a>
</g>
</g>
<!-- Node4&#45;&gt;Node3 -->
<g id="edge3_Node000003_Node000004" class="edge">
<title>Node4&#45;&gt;Node3</title>
<g id="a_edge3_Node000003_Node000004"><a xlink:title=" ">
<path fill="none" stroke="#63b8ff" d="M184.88,-110.13C184.88,-101.84 184.88,-92.67 184.88,-86.11"/>
<polygon fill="#63b8ff" stroke="#63b8ff" points="181.38,-110.07 184.88,-120.07 188.38,-110.07 181.38,-110.07"/>
</a>
</g>
</g>
</g>
</svg>
