<?xml version="1.0" encoding="UTF-8" standalone="no"?>
<!DOCTYPE svg PUBLIC "-//W3C//DTD SVG 1.1//EN"
 "http://www.w3.org/Graphics/SVG/1.1/DTD/svg11.dtd">
<!-- Generated by graphviz version 13.1.2 (20250808.2320)
 -->
<!-- Title: PRISMS::PField&lt; Coordinate, FieldType, DIM &gt; Pages: 1 -->
<svg width="360pt" height="88pt"
 viewBox="0.00 0.00 360.00 88.00" xmlns="http://www.w3.org/2000/svg" xmlns:xlink="http://www.w3.org/1999/xlink">
<g id="graph0" class="graph" transform="scale(1 1) rotate(0) translate(4 83.5)">
<title>PRISMS::PField&lt; Coordinate, FieldType, DIM &gt;</title>
<!-- Node1 -->
<g id="Node000001" class="node">
<title>Node1</title>
<g id="a_Node000001"><a xlink:title=" ">
<polygon fill="#999999" stroke="#666666" points="352.25,-54.5 204.25,-54.5 204.25,-24 352.25,-24 352.25,-54.5"/>
<text xml:space="preserve" text-anchor="start" x="212.25" y="-41" font-family="Helvetica,sans-Serif" font-size="10.00">PRISMS::PField&lt; Coordinate,</text>
<text xml:space="preserve" text-anchor="middle" x="278.25" y="-29.75" font-family="Helvetica,sans-Serif" font-size="10.00"> FieldType, DIM &gt;</text>
</a>
</g>
</g>
<!-- Node2 -->
<g id="Node000002" class="node">
<title>Node2</title>
<g id="a_Node000002"><a xlink:href="class_p_r_i_s_m_s_1_1_p_func_base.html" target="_top" xlink:title=" ">
<polygon fill="white" stroke="#666666" points="128.12,-79.5 4.88,-79.5 4.88,-49 128.12,-49 128.12,-79.5"/>
<text xml:space="preserve" text-anchor="start" x="12.88" y="-66" font-family="Helvetica,sans-Serif" font-size="10.00">PRISMS::PFuncBase&lt;</text>
<text xml:space="preserve" text-anchor="middle" x="66.5" y="-54.75" font-family="Helvetica,sans-Serif" font-size="10.00"> Coordinate, FieldType &gt;</text>
</a>
</g>
</g>
<!-- Node2&#45;&gt;Node1 -->
<g id="edge1_Node000001_Node000002" class="edge">
<title>Node2&#45;&gt;Node1</title>
<g id="a_edge1_Node000001_Node000002"><a xlink:title=" ">
<path fill="none" stroke="#63b8ff" d="M139.58,-55.79C154.98,-53.97 171.16,-52.05 186.25,-50.25 192.1,-49.55 198.15,-48.83 204.24,-48.09"/>
<polygon fill="#63b8ff" stroke="#63b8ff" points="139.55,-52.27 130.03,-56.91 140.37,-59.22 139.55,-52.27"/>
</a>
</g>
</g>
<!-- Node3 -->
<g id="Node000003" class="node">
<title>Node3</title>
<g id="a_Node000003"><a xlink:href="class_p_r_i_s_m_s_1_1_mesh.html" target="_top" xlink:title=" ">
<polygon fill="white" stroke="#666666" points="133,-30.5 0,-30.5 0,0 133,0 133,-30.5"/>
<text xml:space="preserve" text-anchor="start" x="8" y="-17" font-family="Helvetica,sans-Serif" font-size="10.00">PRISMS::Mesh&lt; PRISMS</text>
<text xml:space="preserve" text-anchor="middle" x="66.5" y="-5.75" font-family="Helvetica,sans-Serif" font-size="10.00">::Coordinate, DIM &gt;</text>
</a>
</g>
</g>
<!-- Node3&#45;&gt;Node1 -->
<g id="edge2_Node000001_Node000003" class="edge">
<title>Node3&#45;&gt;Node1</title>
<g id="a_edge2_Node000001_Node000003"><a xlink:title=" ">
<path fill="none" stroke="#9a32cd" stroke-dasharray="5,2" d="M144.55,-24.07C163.99,-26.29 184.79,-28.67 204.03,-30.87"/>
<polygon fill="#9a32cd" stroke="#9a32cd" points="145.13,-20.61 134.79,-22.95 144.33,-27.56 145.13,-20.61"/>
</a>
</g>
<text xml:space="preserve" text-anchor="start" x="154" y="-33.44" font-family="Helvetica,sans-Serif" font-size="10.00" fill="grey">_mesh</text>
</g>
</g>
</svg>
