<?xml version="1.0" encoding="UTF-8" standalone="no"?>
<!DOCTYPE svg PUBLIC "-//W3C//DTD SVG 1.1//EN"
 "http://www.w3.org/Graphics/SVG/1.1/DTD/svg11.dtd">
<!-- Generated by graphviz version 13.1.2 (20250808.2320)
 -->
<!-- Title: continuumPlasticity&lt; dim &gt; Pages: 1 -->
<svg width="430pt" height="271pt"
 viewBox="0.00 0.00 430.00 271.00" xmlns="http://www.w3.org/2000/svg" xmlns:xlink="http://www.w3.org/1999/xlink">
<g id="graph0" class="graph" transform="scale(1 1) rotate(0) translate(4 267.25)">
<title>continuumPlasticity&lt; dim &gt;</title>
<!-- Node1 -->
<g id="Node000001" class="node">
<title>Node1</title>
<g id="a_Node000001"><a xlink:title=" ">
<polygon fill="#999999" stroke="#666666" points="235.62,-30.5 134.12,-30.5 134.12,0 235.62,0 235.62,-30.5"/>
<text xml:space="preserve" text-anchor="start" x="142.12" y="-17" font-family="Helvetica,sans-Serif" font-size="10.00">continuumPlasticity</text>
<text xml:space="preserve" text-anchor="middle" x="184.88" y="-5.75" font-family="Helvetica,sans-Serif" font-size="10.00">&lt; dim &gt;</text>
</a>
</g>
</g>
<!-- Node2 -->
<g id="Node000002" class="node">
<title>Node2</title>
<g id="a_Node000002"><a xlink:title=" ">
<polygon fill="white" stroke="#bfbfbf" points="97.75,-103 0,-103 0,-83.75 97.75,-83.75 97.75,-103"/>
<text xml:space="preserve" text-anchor="middle" x="48.88" y="-89.5" font-family="Helvetica,sans-Serif" font-size="10.00">ellipticBVP&lt; dim &gt;</text>
</a>
</g>
</g>
<!-- Node2&#45;&gt;Node1 -->
<g id="edge1_Node000001_Node000002" class="edge">
<title>Node2&#45;&gt;Node1</title>
<g id="a_edge1_Node000001_Node000002"><a xlink:title=" ">
<path fill="none" stroke="#63b8ff" d="M74.87,-77.82C98.96,-64.34 134.62,-44.38 158.75,-30.87"/>
<polygon fill="#63b8ff" stroke="#63b8ff" points="73.35,-74.67 66.33,-82.6 76.77,-80.77 73.35,-74.67"/>
</a>
</g>
</g>
<!-- Node3 -->
<g id="Node000003" class="node">
<title>Node3</title>
<g id="a_Node000003"><a xlink:href="class_multi_physics_b_v_p.html" target="_top" xlink:title=" ">
<polygon fill="white" stroke="#bfbfbf" points="253.62,-103 116.12,-103 116.12,-83.75 253.62,-83.75 253.62,-103"/>
<text xml:space="preserve" text-anchor="middle" x="184.88" y="-89.5" font-family="Helvetica,sans-Serif" font-size="10.00">MultiPhysicsBVP&lt; dim, 1 &gt;</text>
</a>
</g>
</g>
<!-- Node3&#45;&gt;Node1 -->
<g id="edge2_Node000001_Node000003" class="edge">
<title>Node3&#45;&gt;Node1</title>
<g id="a_edge2_Node000001_Node000003"><a xlink:title=" ">
<path fill="none" stroke="#63b8ff" d="M184.88,-72.22C184.88,-59.17 184.88,-42.48 184.88,-30.73"/>
<polygon fill="#63b8ff" stroke="#63b8ff" points="181.38,-71.83 184.88,-81.83 188.38,-71.83 181.38,-71.83"/>
</a>
</g>
</g>
<!-- Node4 -->
<g id="Node000004" class="node">
<title>Node4</title>
<g id="a_Node000004"><a xlink:title=" ">
<polygon fill="white" stroke="#bfbfbf" points="105.62,-175.5 40.12,-175.5 40.12,-156.25 105.62,-156.25 105.62,-175.5"/>
<text xml:space="preserve" text-anchor="middle" x="72.88" y="-162" font-family="Helvetica,sans-Serif" font-size="10.00">Subscriptor</text>
</a>
</g>
</g>
<!-- Node4&#45;&gt;Node3 -->
<g id="edge3_Node000003_Node000004" class="edge">
<title>Node4&#45;&gt;Node3</title>
<g id="a_edge3_Node000003_Node000004"><a xlink:title=" ">
<path fill="none" stroke="#63b8ff" d="M96.51,-150C118.88,-135.91 151.75,-115.23 170.45,-103.45"/>
<polygon fill="#63b8ff" stroke="#63b8ff" points="94.94,-146.85 88.34,-155.14 98.67,-152.77 94.94,-146.85"/>
</a>
</g>
</g>
<!-- Node5 -->
<g id="Node000005" class="node">
<title>Node5</title>
<g id="a_Node000005"><a xlink:href="classuser_input_parameters__cp.html" target="_top" xlink:title=" ">
<polygon fill="white" stroke="#bfbfbf" points="246.12,-175.5 123.62,-175.5 123.62,-156.25 246.12,-156.25 246.12,-175.5"/>
<text xml:space="preserve" text-anchor="middle" x="184.88" y="-162" font-family="Helvetica,sans-Serif" font-size="10.00">userInputParameters_cp</text>
</a>
</g>
</g>
<!-- Node5&#45;&gt;Node3 -->
<g id="edge4_Node000003_Node000005" class="edge">
<title>Node5&#45;&gt;Node3</title>
<g id="a_edge4_Node000003_Node000005"><a xlink:title=" ">
<path fill="none" stroke="#9a32cd" stroke-dasharray="5,2" d="M184.88,-144.8C184.88,-131.19 184.88,-113.85 184.88,-103.45"/>
<polygon fill="#9a32cd" stroke="#9a32cd" points="181.38,-144.43 184.88,-154.43 188.38,-144.43 181.38,-144.43"/>
</a>
</g>
<text xml:space="preserve" text-anchor="start" x="187.88" y="-125.75" font-family="Helvetica,sans-Serif" font-size="10.00" fill="grey">userInputs_cp</text>
</g>
<!-- Node6 -->
<g id="Node000006" class="node">
<title>Node6</title>
<g id="a_Node000006"><a xlink:href="classvariable_attribute_loader.html" target="_top" xlink:title=" ">
<polygon fill="white" stroke="#bfbfbf" points="379.75,-175.5 264,-175.5 264,-156.25 379.75,-156.25 379.75,-175.5"/>
<text xml:space="preserve" text-anchor="middle" x="321.88" y="-162" font-family="Helvetica,sans-Serif" font-size="10.00">variableAttributeLoader</text>
</a>
</g>
</g>
<!-- Node6&#45;&gt;Node3 -->
<g id="edge5_Node000003_Node000006" class="edge">
<title>Node6&#45;&gt;Node3</title>
<g id="a_edge5_Node000003_Node000006"><a xlink:title=" ">
<path fill="none" stroke="#9a32cd" stroke-dasharray="5,2" d="M301.05,-149.25C288.42,-140.23 271.73,-129.11 255.88,-121 242.4,-114.11 226.7,-108.03 213.5,-103.44"/>
<polygon fill="#9a32cd" stroke="#9a32cd" points="298.85,-151.97 308.99,-155.04 302.97,-146.32 298.85,-151.97"/>
</a>
</g>
<text xml:space="preserve" text-anchor="start" x="286.96" y="-125.75" font-family="Helvetica,sans-Serif" font-size="10.00" fill="grey">var_attributes</text>
</g>
<!-- Node7 -->
<g id="Node000007" class="node">
<title>Node7</title>
<g id="a_Node000007"><a xlink:href="class_equation_dependency_parser.html" target="_top" xlink:title=" ">
<polygon fill="white" stroke="#666666" points="390.62,-263.25 253.12,-263.25 253.12,-244 390.62,-244 390.62,-263.25"/>
<text xml:space="preserve" text-anchor="middle" x="321.88" y="-249.75" font-family="Helvetica,sans-Serif" font-size="10.00">EquationDependencyParser</text>
</a>
</g>
</g>
<!-- Node7&#45;&gt;Node6 -->
<g id="edge6_Node000006_Node000007" class="edge">
<title>Node7&#45;&gt;Node6</title>
<g id="a_edge6_Node000006_Node000007"><a xlink:title=" ">
<path fill="none" stroke="#9a32cd" stroke-dasharray="5,2" d="M321.88,-232.29C321.88,-214.36 321.88,-189.08 321.88,-175.81"/>
<polygon fill="#9a32cd" stroke="#9a32cd" points="318.38,-232.26 321.88,-242.26 325.38,-232.26 318.38,-232.26"/>
</a>
</g>
<text xml:space="preserve" text-anchor="start" x="324.88" y="-213.5" font-family="Helvetica,sans-Serif" font-size="10.00" fill="grey">equation_dependency</text>
<text xml:space="preserve" text-anchor="start" x="324.88" y="-198.25" font-family="Helvetica,sans-Serif" font-size="10.00" fill="grey">  _parser</text>
</g>
<!-- Node8 -->
<g id="Node000008" class="node">
<title>Node8</title>
<g id="a_Node000008"><a xlink:href="structmaterial_properties.html" target="_top" xlink:title=" ">
<polygon fill="white" stroke="#bfbfbf" points="366.25,-103 271.5,-103 271.5,-83.75 366.25,-83.75 366.25,-103"/>
<text xml:space="preserve" text-anchor="middle" x="318.88" y="-89.5" font-family="Helvetica,sans-Serif" font-size="10.00">materialProperties</text>
</a>
</g>
</g>
<!-- Node8&#45;&gt;Node1 -->
<g id="edge7_Node000001_Node000008" class="edge">
<title>Node8&#45;&gt;Node1</title>
<g id="a_edge7_Node000001_Node000008"><a xlink:title=" ">
<path fill="none" stroke="#9a32cd" stroke-dasharray="5,2" d="M293.23,-77.81C269.41,-64.27 234.13,-44.23 210.36,-30.73"/>
<polygon fill="#9a32cd" stroke="#9a32cd" points="291.24,-80.7 301.66,-82.6 294.7,-74.61 291.24,-80.7"/>
</a>
</g>
<text xml:space="preserve" text-anchor="start" x="274.71" y="-53.25" font-family="Helvetica,sans-Serif" font-size="10.00" fill="grey">properties</text>
</g>
</g>
</svg>
