<?xml version="1.0" encoding="UTF-8" standalone="no"?>
<!DOCTYPE svg PUBLIC "-//W3C//DTD SVG 1.1//EN"
 "http://www.w3.org/Graphics/SVG/1.1/DTD/svg11.dtd">
<!-- Generated by graphviz version 13.1.2 (20250808.2320)
 -->
<!-- Title: PRISMS::Cu_hardening&lt; VarContainer &gt; Pages: 1 -->
<svg width="339pt" height="102pt"
 viewBox="0.00 0.00 339.00 102.00" xmlns="http://www.w3.org/2000/svg" xmlns:xlink="http://www.w3.org/1999/xlink">
<g id="graph0" class="graph" transform="scale(1 1) rotate(0) translate(4 97.5)">
<title>PRISMS::Cu_hardening&lt; VarContainer &gt;</title>
<!-- Node1 -->
<g id="Node000001" class="node">
<title>Node1</title>
<g id="a_Node000001"><a xlink:title=" ">
<polygon fill="#999999" stroke="#666666" points="331.25,-61.5 210.25,-61.5 210.25,-31 331.25,-31 331.25,-61.5"/>
<text xml:space="preserve" text-anchor="start" x="218.25" y="-48" font-family="Helvetica,sans-Serif" font-size="10.00">PRISMS::Cu_hardening</text>
<text xml:space="preserve" text-anchor="middle" x="270.75" y="-36.75" font-family="Helvetica,sans-Serif" font-size="10.00">&lt; VarContainer &gt;</text>
</a>
</g>
</g>
<!-- Node2 -->
<g id="Node000002" class="node">
<title>Node2</title>
<g id="a_Node000002"><a xlink:href="class_p_r_i_s_m_s_1_1_p_func_base.html" target="_top" xlink:title=" ">
<polygon fill="white" stroke="#666666" points="121,-93.5 3,-93.5 3,-63 121,-63 121,-93.5"/>
<text xml:space="preserve" text-anchor="start" x="11" y="-80" font-family="Helvetica,sans-Serif" font-size="10.00">PRISMS::PFuncBase&lt;</text>
<text xml:space="preserve" text-anchor="middle" x="62" y="-68.75" font-family="Helvetica,sans-Serif" font-size="10.00"> VarContainer, double &gt;</text>
</a>
</g>
</g>
<!-- Node2&#45;&gt;Node1 -->
<g id="edge1_Node000001_Node000002" class="edge">
<title>Node2&#45;&gt;Node1</title>
<g id="a_edge1_Node000001_Node000002"><a xlink:title=" ">
<path fill="none" stroke="#63b8ff" d="M132.62,-72.26C151.99,-70.17 173,-67.52 192.25,-64.25 197.97,-63.28 203.9,-62.14 209.81,-60.92"/>
<polygon fill="#63b8ff" stroke="#63b8ff" points="132.52,-68.75 122.94,-73.27 133.25,-75.72 132.52,-68.75"/>
</a>
</g>
</g>
<!-- Node3 -->
<g id="Node000003" class="node">
<title>Node3</title>
<g id="a_Node000003"><a xlink:href="class_p_r_i_s_m_s_1_1_p_simple_base.html" target="_top" xlink:title=" ">
<polygon fill="white" stroke="#666666" points="124,-30.5 0,-30.5 0,0 124,0 124,-30.5"/>
<text xml:space="preserve" text-anchor="start" x="8" y="-17" font-family="Helvetica,sans-Serif" font-size="10.00">PRISMS::PSimpleBase</text>
<text xml:space="preserve" text-anchor="middle" x="62" y="-5.75" font-family="Helvetica,sans-Serif" font-size="10.00">&lt; VarContainer, double &gt;</text>
</a>
</g>
</g>
<!-- Node3&#45;&gt;Node1 -->
<g id="edge2_Node000001_Node000003" class="edge">
<title>Node3&#45;&gt;Node1</title>
<g id="a_edge2_Node000001_Node000003"><a xlink:title=" ">
<path fill="none" stroke="#9a32cd" stroke-dasharray="5,2" d="M135.64,-11.42C154.22,-11.68 174.09,-13.04 192.25,-16.5 207.26,-19.36 223.12,-24.95 236.57,-30.52"/>
<polygon fill="#9a32cd" stroke="#9a32cd" points="135.78,-7.93 125.77,-11.4 135.77,-14.93 135.78,-7.93"/>
</a>
</g>
<text xml:space="preserve" text-anchor="start" x="145" y="-51.75" font-family="Helvetica,sans-Serif" font-size="10.00" fill="grey">_grad_val</text>
<text xml:space="preserve" text-anchor="start" x="145" y="-36.5" font-family="Helvetica,sans-Serif" font-size="10.00" fill="grey">_hess_val</text>
<text xml:space="preserve" text-anchor="start" x="145" y="-21.25" font-family="Helvetica,sans-Serif" font-size="10.00" fill="grey">_val</text>
</g>
</g>
</svg>
