<?xml version="1.0" encoding="UTF-8" standalone="no"?>
<!DOCTYPE svg PUBLIC "-//W3C//DTD SVG 1.1//EN"
 "http://www.w3.org/Graphics/SVG/1.1/DTD/svg11.dtd">
<!-- Generated by graphviz version 13.1.2 (20250808.2320)
 -->
<!-- Title: Graphical Class Hierarchy Pages: 1 -->
<svg width="332pt" height="196pt"
 viewBox="0.00 0.00 332.00 196.00" xmlns="http://www.w3.org/2000/svg" xmlns:xlink="http://www.w3.org/1999/xlink">
<g id="graph0" class="graph" transform="scale(1 1) rotate(0) translate(4 191.5)">
<title>Graphical Class Hierarchy</title>
<!-- Node0 -->
<g id="Node000000" class="node">
<title>Node0</title>
<g id="a_Node000000"><a xlink:href="class_p_r_i_s_m_s_1_1_p_func_base.html" target="_top" xlink:title=" ">
<polygon fill="white" stroke="#666666" points="126.25,-111.5 0,-111.5 0,-81 126.25,-81 126.25,-111.5"/>
<text xml:space="preserve" text-anchor="start" x="8" y="-98" font-family="Helvetica,sans-Serif" font-size="10.00">PRISMS::PFuncBase&lt;</text>
<text xml:space="preserve" text-anchor="middle" x="63.12" y="-86.75" font-family="Helvetica,sans-Serif" font-size="10.00"> VarContainer, OutType &gt;</text>
</a>
</g>
</g>
<!-- Node1 -->
<g id="Node000001" class="node">
<title>Node1</title>
<g id="a_Node000001"><a xlink:href="class_p_r_i_s_m_s_1_1_p_flex_function.html" target="_top" xlink:title=" ">
<polygon fill="white" stroke="#666666" points="309.12,-187.5 176.88,-187.5 176.88,-157 309.12,-157 309.12,-187.5"/>
<text xml:space="preserve" text-anchor="start" x="184.88" y="-174" font-family="Helvetica,sans-Serif" font-size="10.00">PRISMS::PFlexFunction</text>
<text xml:space="preserve" text-anchor="middle" x="243" y="-162.75" font-family="Helvetica,sans-Serif" font-size="10.00">&lt; VarContainer, OutType &gt;</text>
</a>
</g>
</g>
<!-- Node0&#45;&gt;Node1 -->
<g id="edge26_Node000000_Node000001" class="edge">
<title>Node0&#45;&gt;Node1</title>
<g id="a_edge26_Node000000_Node000001"><a xlink:title=" ">
<path fill="none" stroke="#63b8ff" d="M100.87,-117.3C118.99,-127.18 141.38,-138.64 162.25,-147.25 170.3,-150.57 178.95,-153.71 187.49,-156.57"/>
<polygon fill="#63b8ff" stroke="#63b8ff" points="102.78,-114.36 92.33,-112.59 99.39,-120.49 102.78,-114.36"/>
</a>
</g>
</g>
<!-- Node2 -->
<g id="Node000002" class="node">
<title>Node2</title>
<g id="a_Node000002"><a xlink:href="class_p_r_i_s_m_s_1_1_p_piece_wise_func_base.html" target="_top" xlink:title=" ">
<polygon fill="white" stroke="#666666" points="322.62,-138.5 163.38,-138.5 163.38,-108 322.62,-108 322.62,-138.5"/>
<text xml:space="preserve" text-anchor="start" x="171.38" y="-125" font-family="Helvetica,sans-Serif" font-size="10.00">PRISMS::PPieceWiseFuncBase</text>
<text xml:space="preserve" text-anchor="middle" x="243" y="-113.75" font-family="Helvetica,sans-Serif" font-size="10.00">&lt; VarContainer, OutType &gt;</text>
</a>
</g>
</g>
<!-- Node0&#45;&gt;Node2 -->
<g id="edge27_Node000000_Node000002" class="edge">
<title>Node0&#45;&gt;Node2</title>
<g id="a_edge27_Node000000_Node000002"><a xlink:title=" ">
<path fill="none" stroke="#63b8ff" d="M137.83,-107.44C146.19,-108.71 154.72,-110 163.14,-111.28"/>
<polygon fill="#63b8ff" stroke="#63b8ff" points="138.5,-104 128.08,-105.96 137.44,-110.92 138.5,-104"/>
</a>
</g>
</g>
<!-- Node3 -->
<g id="Node000003" class="node">
<title>Node3</title>
<g id="a_Node000003"><a xlink:href="class_p_r_i_s_m_s_1_1_p_series_function.html" target="_top" xlink:title=" ">
<polygon fill="white" stroke="#666666" points="323.75,-90.12 162.25,-90.12 162.25,-48.38 323.75,-48.38 323.75,-90.12"/>
<text xml:space="preserve" text-anchor="start" x="170.25" y="-76.62" font-family="Helvetica,sans-Serif" font-size="10.00">PRISMS::PSeriesFunction</text>
<text xml:space="preserve" text-anchor="start" x="170.25" y="-65.38" font-family="Helvetica,sans-Serif" font-size="10.00">&lt; InType, OutType, VarContainer,</text>
<text xml:space="preserve" text-anchor="middle" x="243" y="-54.12" font-family="Helvetica,sans-Serif" font-size="10.00"> IndexContainer &gt;</text>
</a>
</g>
</g>
<!-- Node0&#45;&gt;Node3 -->
<g id="edge28_Node000000_Node000003" class="edge">
<title>Node0&#45;&gt;Node3</title>
<g id="a_edge28_Node000000_Node000003"><a xlink:title=" ">
<path fill="none" stroke="#63b8ff" d="M137.72,-85.08C145.7,-83.87 153.84,-82.63 161.89,-81.41"/>
<polygon fill="#63b8ff" stroke="#63b8ff" points="137.44,-81.58 128.08,-86.54 138.5,-88.5 137.44,-81.58"/>
</a>
</g>
</g>
<!-- Node4 -->
<g id="Node000004" class="node">
<title>Node4</title>
<g id="a_Node000004"><a xlink:href="class_p_r_i_s_m_s_1_1_piece.html" target="_top" xlink:title=" ">
<polygon fill="white" stroke="#666666" points="319.62,-30.5 166.38,-30.5 166.38,0 319.62,0 319.62,-30.5"/>
<text xml:space="preserve" text-anchor="start" x="174.38" y="-17" font-family="Helvetica,sans-Serif" font-size="10.00">PRISMS::Piece&lt; VarContainer,</text>
<text xml:space="preserve" text-anchor="middle" x="243" y="-5.75" font-family="Helvetica,sans-Serif" font-size="10.00"> OutType &gt;</text>
</a>
</g>
</g>
<!-- Node0&#45;&gt;Node4 -->
<g id="edge29_Node000000_Node000004" class="edge">
<title>Node0&#45;&gt;Node4</title>
<g id="a_edge29_Node000000_Node000004"><a xlink:title=" ">
<path fill="none" stroke="#63b8ff" d="M97.22,-74.41C115.78,-62.84 139.68,-49.04 162.25,-39.25 169.15,-36.26 176.53,-33.49 183.92,-30.98"/>
<polygon fill="#63b8ff" stroke="#63b8ff" points="95.35,-71.45 88.78,-79.76 99.1,-77.37 95.35,-71.45"/>
</a>
</g>
</g>
</g>
</svg>
