<?xml version="1.0" encoding="UTF-8" standalone="no"?>
<!DOCTYPE svg PUBLIC "-//W3C//DTD SVG 1.1//EN"
 "http://www.w3.org/Graphics/SVG/1.1/DTD/svg11.dtd">
<!-- Generated by graphviz version 13.1.2 (20250808.2320)
 -->
<!-- Title: Graphical Class Hierarchy Pages: 1 -->
<svg width="385pt" height="199pt"
 viewBox="0.00 0.00 385.00 199.00" xmlns="http://www.w3.org/2000/svg" xmlns:xlink="http://www.w3.org/1999/xlink">
<g id="graph0" class="graph" transform="scale(1 1) rotate(0) translate(4 194.88)">
<title>Graphical Class Hierarchy</title>
<!-- Node0 -->
<g id="Node000000" class="node">
<title>Node0</title>
<g id="a_Node000000"><a xlink:title=" ">
<polygon fill="#e0e0e0" stroke="#999999" points="202.25,-190.88 138.25,-190.88 138.25,-171.62 202.25,-171.62 202.25,-190.88"/>
<text xml:space="preserve" text-anchor="middle" x="170.25" y="-177.38" font-family="Helvetica,sans-Serif" font-size="10.00">ellipticBVP</text>
</a>
</g>
</g>
<!-- Node1 -->
<g id="Node000001" class="node">
<title>Node1</title>
<g id="a_Node000001"><a xlink:href="classcontinuum_plasticity.html" target="_top" xlink:title=" ">
<polygon fill="white" stroke="#666666" points="376.5,-183.5 275,-183.5 275,-153 376.5,-153 376.5,-183.5"/>
<text xml:space="preserve" text-anchor="start" x="283" y="-170" font-family="Helvetica,sans-Serif" font-size="10.00">continuumPlasticity</text>
<text xml:space="preserve" text-anchor="middle" x="325.75" y="-158.75" font-family="Helvetica,sans-Serif" font-size="10.00">&lt; dim &gt;</text>
</a>
</g>
</g>
<!-- Node0&#45;&gt;Node1 -->
<g id="edge7_Node000000_Node000001" class="edge">
<title>Node0&#45;&gt;Node1</title>
<g id="a_edge7_Node000000_Node000001"><a xlink:title=" ">
<path fill="none" stroke="#63b8ff" d="M213.91,-177.64C232.74,-176.04 255.01,-174.16 274.62,-172.5"/>
<polygon fill="#63b8ff" stroke="#63b8ff" points="213.86,-174.13 204.19,-178.46 214.45,-181.1 213.86,-174.13"/>
</a>
</g>
</g>
<!-- Node4 -->
<g id="Node000004" class="node">
<title>Node4</title>
<g id="a_Node000004"><a xlink:title=" ">
<polygon fill="#e0e0e0" stroke="#999999" points="65.5,-94.88 0,-94.88 0,-75.62 65.5,-75.62 65.5,-94.88"/>
<text xml:space="preserve" text-anchor="middle" x="32.75" y="-81.38" font-family="Helvetica,sans-Serif" font-size="10.00">Subscriptor</text>
</a>
</g>
</g>
<!-- Node5 -->
<g id="Node000005" class="node">
<title>Node5</title>
<g id="a_Node000005"><a xlink:href="class_matrix_free_p_d_e.html" target="_top" xlink:title=" ">
<polygon fill="white" stroke="#666666" points="234.5,-153.88 106,-153.88 106,-134.62 234.5,-134.62 234.5,-153.88"/>
<text xml:space="preserve" text-anchor="middle" x="170.25" y="-140.38" font-family="Helvetica,sans-Serif" font-size="10.00">MatrixFreePDE&lt; dim, 1 &gt;</text>
</a>
</g>
</g>
<!-- Node4&#45;&gt;Node5 -->
<g id="edge8_Node000004_Node000005" class="edge">
<title>Node4&#45;&gt;Node5</title>
<g id="a_edge8_Node000004_Node000005"><a xlink:title=" ">
<path fill="none" stroke="#63b8ff" d="M56.98,-101.57C69.66,-109.9 85.93,-119.63 101.5,-126.25 108.67,-129.3 116.49,-131.95 124.18,-134.2"/>
<polygon fill="#63b8ff" stroke="#63b8ff" points="59.16,-98.82 48.91,-96.14 55.24,-104.63 59.16,-98.82"/>
</a>
</g>
</g>
<!-- Node2 -->
<g id="Node000002" class="node">
<title>Node2</title>
<g id="a_Node000002"><a xlink:href="class_multi_physics_b_v_p.html" target="_top" xlink:title=" ">
<polygon fill="white" stroke="#666666" points="239,-116.88 101.5,-116.88 101.5,-97.62 239,-97.62 239,-116.88"/>
<text xml:space="preserve" text-anchor="middle" x="170.25" y="-103.38" font-family="Helvetica,sans-Serif" font-size="10.00">MultiPhysicsBVP&lt; dim, 1 &gt;</text>
</a>
</g>
</g>
<!-- Node4&#45;&gt;Node2 -->
<g id="edge9_Node000004_Node000002" class="edge">
<title>Node4&#45;&gt;Node2</title>
<g id="a_edge9_Node000004_Node000002"><a xlink:title=" ">
<path fill="none" stroke="#63b8ff" d="M77.08,-92.28C86.63,-93.84 96.92,-95.51 107.06,-97.15"/>
<polygon fill="#63b8ff" stroke="#63b8ff" points="77.79,-88.85 67.36,-90.71 76.67,-95.76 77.79,-88.85"/>
</a>
</g>
</g>
<!-- Node6 -->
<g id="Node000006" class="node">
<title>Node6</title>
<g id="a_Node000006"><a xlink:href="class_matrix_free_p_d_e.html" target="_top" xlink:title="This is the abstract base class for the matrix free implementation of parabolic and elliptic BVP&#39;s,...">
<polygon fill="white" stroke="#666666" points="225.88,-79.5 114.62,-79.5 114.62,-49 225.88,-49 225.88,-79.5"/>
<text xml:space="preserve" text-anchor="start" x="122.62" y="-66" font-family="Helvetica,sans-Serif" font-size="10.00">MatrixFreePDE&lt; dim,</text>
<text xml:space="preserve" text-anchor="middle" x="170.25" y="-54.75" font-family="Helvetica,sans-Serif" font-size="10.00"> degree &gt;</text>
</a>
</g>
</g>
<!-- Node4&#45;&gt;Node6 -->
<g id="edge12_Node000004_Node000006" class="edge">
<title>Node4&#45;&gt;Node6</title>
<g id="a_edge12_Node000004_Node000006"><a xlink:title=" ">
<path fill="none" stroke="#63b8ff" d="M77.23,-78.51C89.03,-76.68 101.97,-74.68 114.32,-72.76"/>
<polygon fill="#63b8ff" stroke="#63b8ff" points="76.7,-75.05 67.36,-80.04 77.78,-81.97 76.7,-75.05"/>
</a>
</g>
</g>
<!-- Node7 -->
<g id="Node000007" class="node">
<title>Node7</title>
<g id="a_Node000007"><a xlink:href="class_multi_physics_b_v_p.html" target="_top" xlink:title=" ">
<polygon fill="white" stroke="#666666" points="230.38,-30.5 110.12,-30.5 110.12,0 230.38,0 230.38,-30.5"/>
<text xml:space="preserve" text-anchor="start" x="118.12" y="-17" font-family="Helvetica,sans-Serif" font-size="10.00">MultiPhysicsBVP&lt; dim,</text>
<text xml:space="preserve" text-anchor="middle" x="170.25" y="-5.75" font-family="Helvetica,sans-Serif" font-size="10.00"> degree &gt;</text>
</a>
</g>
</g>
<!-- Node4&#45;&gt;Node7 -->
<g id="edge13_Node000004_Node000007" class="edge">
<title>Node4&#45;&gt;Node7</title>
<g id="a_edge13_Node000004_Node000007"><a xlink:title=" ">
<path fill="none" stroke="#63b8ff" d="M55.93,-68.61C68.79,-59.46 85.55,-48.35 101.5,-40.25 108.1,-36.9 115.25,-33.77 122.35,-30.93"/>
<polygon fill="#63b8ff" stroke="#63b8ff" points="54.19,-65.54 48.16,-74.25 58.31,-71.21 54.19,-65.54"/>
</a>
</g>
</g>
<!-- Node2&#45;&gt;Node1 -->
<g id="edge10_Node000002_Node000001" class="edge">
<title>Node2&#45;&gt;Node1</title>
<g id="a_edge10_Node000002_Node000001"><a xlink:title=" ">
<path fill="none" stroke="#63b8ff" d="M225.47,-120.58C230.08,-122.04 234.65,-123.6 239,-125.25 259.09,-132.86 280.71,-143.72 297.21,-152.62"/>
<polygon fill="#63b8ff" stroke="#63b8ff" points="226.71,-117.3 216.13,-117.8 224.71,-124.01 226.71,-117.3"/>
</a>
</g>
</g>
<!-- Node3 -->
<g id="Node000003" class="node">
<title>Node3</title>
<g id="a_Node000003"><a xlink:href="classcrystal_plasticity.html" target="_top" xlink:title=" ">
<polygon fill="white" stroke="#666666" points="371.62,-122.5 279.88,-122.5 279.88,-92 371.62,-92 371.62,-122.5"/>
<text xml:space="preserve" text-anchor="start" x="287.88" y="-109" font-family="Helvetica,sans-Serif" font-size="10.00">crystalPlasticity&lt;</text>
<text xml:space="preserve" text-anchor="middle" x="325.75" y="-97.75" font-family="Helvetica,sans-Serif" font-size="10.00"> dim &gt;</text>
</a>
</g>
</g>
<!-- Node2&#45;&gt;Node3 -->
<g id="edge11_Node000002_Node000003" class="edge">
<title>Node2&#45;&gt;Node3</title>
<g id="a_edge11_Node000002_Node000003"><a xlink:title=" ">
<path fill="none" stroke="#63b8ff" d="M250.68,-107.25C260.62,-107.25 270.5,-107.25 279.65,-107.25"/>
<polygon fill="#63b8ff" stroke="#63b8ff" points="250.98,-103.75 240.98,-107.25 250.98,-110.75 250.98,-103.75"/>
</a>
</g>
</g>
</g>
</svg>
