<?xml version="1.0" encoding="UTF-8" standalone="no"?>
<!DOCTYPE svg PUBLIC "-//W3C//DTD SVG 1.1//EN"
 "http://www.w3.org/Graphics/SVG/1.1/DTD/svg11.dtd">
<!-- Generated by graphviz version 13.1.2 (20250808.2320)
 -->
<!-- Title: Graphical Class Hierarchy Pages: 1 -->
<svg width="334pt" height="248pt"
 viewBox="0.00 0.00 334.00 248.00" xmlns="http://www.w3.org/2000/svg" xmlns:xlink="http://www.w3.org/1999/xlink">
<g id="graph0" class="graph" transform="scale(1 1) rotate(0) translate(4 243.5)">
<title>Graphical Class Hierarchy</title>
<!-- Node0 -->
<g id="Node000000" class="node">
<title>Node0</title>
<g id="a_Node000000"><a xlink:href="class_p_r_i_s_m_s_1_1_p_func_base.html" target="_top" xlink:title=" ">
<polygon fill="white" stroke="#666666" points="118,-128.5 0,-128.5 0,-98 118,-98 118,-128.5"/>
<text xml:space="preserve" text-anchor="start" x="8" y="-115" font-family="Helvetica,sans-Serif" font-size="10.00">PRISMS::PFuncBase&lt;</text>
<text xml:space="preserve" text-anchor="middle" x="59" y="-103.75" font-family="Helvetica,sans-Serif" font-size="10.00"> VarContainer, double &gt;</text>
</a>
</g>
</g>
<!-- Node1 -->
<g id="Node000001" class="node">
<title>Node1</title>
<g id="a_Node000001"><a xlink:href="class_p_r_i_s_m_s_1_1_cu__hardening.html" target="_top" xlink:title=" ">
<polygon fill="white" stroke="#666666" points="300.5,-239.5 179.5,-239.5 179.5,-209 300.5,-209 300.5,-239.5"/>
<text xml:space="preserve" text-anchor="start" x="187.5" y="-226" font-family="Helvetica,sans-Serif" font-size="10.00">PRISMS::Cu_hardening</text>
<text xml:space="preserve" text-anchor="middle" x="240" y="-214.75" font-family="Helvetica,sans-Serif" font-size="10.00">&lt; VarContainer &gt;</text>
</a>
</g>
</g>
<!-- Node0&#45;&gt;Node1 -->
<g id="edge20_Node000000_Node000001" class="edge">
<title>Node0&#45;&gt;Node1</title>
<g id="a_edge20_Node000000_Node000001"><a xlink:title=" ">
<path fill="none" stroke="#63b8ff" d="M80.68,-137.48C98.35,-156.77 125.39,-183.12 154,-199.25 161.77,-203.63 170.38,-207.31 179.06,-210.38"/>
<polygon fill="#63b8ff" stroke="#63b8ff" points="83.3,-135.16 74.03,-130.04 78.08,-139.83 83.3,-135.16"/>
</a>
</g>
</g>
<!-- Node2 -->
<g id="Node000002" class="node">
<title>Node2</title>
<g id="a_Node000002"><a xlink:href="class_p_r_i_s_m_s_1_1linear__hardening.html" target="_top" xlink:title=" ">
<polygon fill="white" stroke="#666666" points="305.75,-190.5 174.25,-190.5 174.25,-160 305.75,-160 305.75,-190.5"/>
<text xml:space="preserve" text-anchor="start" x="182.25" y="-177" font-family="Helvetica,sans-Serif" font-size="10.00">PRISMS::linear_hardening</text>
<text xml:space="preserve" text-anchor="middle" x="240" y="-165.75" font-family="Helvetica,sans-Serif" font-size="10.00">&lt; VarContainer &gt;</text>
</a>
</g>
</g>
<!-- Node0&#45;&gt;Node2 -->
<g id="edge21_Node000000_Node000002" class="edge">
<title>Node0&#45;&gt;Node2</title>
<g id="a_edge21_Node000000_Node000002"><a xlink:title=" ">
<path fill="none" stroke="#63b8ff" d="M106.79,-133.34C121.75,-139.44 138.45,-145.93 154,-151.25 162.41,-154.13 171.38,-156.94 180.21,-159.55"/>
<polygon fill="#63b8ff" stroke="#63b8ff" points="108.23,-130.14 97.66,-129.56 105.56,-136.61 108.23,-130.14"/>
</a>
</g>
</g>
<!-- Node3 -->
<g id="Node000003" class="node">
<title>Node3</title>
<g id="a_Node000003"><a xlink:href="class_p_r_i_s_m_s_1_1neohook.html" target="_top" xlink:title=" ">
<polygon fill="white" stroke="#666666" points="326,-141.88 154,-141.88 154,-122.62 326,-122.62 326,-141.88"/>
<text xml:space="preserve" text-anchor="middle" x="240" y="-128.38" font-family="Helvetica,sans-Serif" font-size="10.00">PRISMS::neohook&lt; VarContainer &gt;</text>
</a>
</g>
</g>
<!-- Node0&#45;&gt;Node3 -->
<g id="edge22_Node000000_Node000003" class="edge">
<title>Node0&#45;&gt;Node3</title>
<g id="a_edge22_Node000000_Node000003"><a xlink:title=" ">
<path fill="none" stroke="#63b8ff" d="M129.49,-120.63C137.38,-121.46 145.49,-122.32 153.55,-123.18"/>
<polygon fill="#63b8ff" stroke="#63b8ff" points="129.93,-117.15 119.62,-119.58 129.2,-124.11 129.93,-117.15"/>
</a>
</g>
</g>
<!-- Node4 -->
<g id="Node000004" class="node">
<title>Node4</title>
<g id="a_Node000004"><a xlink:href="class_p_r_i_s_m_s_1_1quadlog.html" target="_top" xlink:title=" ">
<polygon fill="white" stroke="#666666" points="324.5,-104.88 155.5,-104.88 155.5,-85.62 324.5,-85.62 324.5,-104.88"/>
<text xml:space="preserve" text-anchor="middle" x="240" y="-91.38" font-family="Helvetica,sans-Serif" font-size="10.00">PRISMS::quadlog&lt; VarContainer &gt;</text>
</a>
</g>
</g>
<!-- Node0&#45;&gt;Node4 -->
<g id="edge23_Node000000_Node000004" class="edge">
<title>Node0&#45;&gt;Node4</title>
<g id="a_edge23_Node000000_Node000004"><a xlink:title=" ">
<path fill="none" stroke="#63b8ff" d="M129.43,-106.27C137.87,-105.42 146.56,-104.55 155.17,-103.68"/>
<polygon fill="#63b8ff" stroke="#63b8ff" points="129.22,-102.77 119.62,-107.25 129.92,-109.74 129.22,-102.77"/>
</a>
</g>
</g>
<!-- Node5 -->
<g id="Node000005" class="node">
<title>Node5</title>
<g id="a_Node000005"><a xlink:href="class_p_r_i_s_m_s_1_1stvenkir.html" target="_top" xlink:title=" ">
<polygon fill="white" stroke="#666666" points="324.88,-67.88 155.12,-67.88 155.12,-48.62 324.88,-48.62 324.88,-67.88"/>
<text xml:space="preserve" text-anchor="middle" x="240" y="-54.38" font-family="Helvetica,sans-Serif" font-size="10.00">PRISMS::stvenkir&lt; VarContainer &gt;</text>
</a>
</g>
</g>
<!-- Node0&#45;&gt;Node5 -->
<g id="edge24_Node000000_Node000005" class="edge">
<title>Node0&#45;&gt;Node5</title>
<g id="a_edge24_Node000000_Node000005"><a xlink:title=" ">
<path fill="none" stroke="#63b8ff" d="M106.25,-93.28C121.29,-87.26 138.19,-81 154,-76.25 163.82,-73.3 174.43,-70.65 184.7,-68.34"/>
<polygon fill="#63b8ff" stroke="#63b8ff" points="105,-90.01 97.06,-97.02 107.65,-96.49 105,-90.01"/>
</a>
</g>
</g>
<!-- Node6 -->
<g id="Node000006" class="node">
<title>Node6</title>
<g id="a_Node000006"><a xlink:href="class_p_r_i_s_m_s_1_1von__mises.html" target="_top" xlink:title=" ">
<polygon fill="white" stroke="#666666" points="297.12,-30.5 182.88,-30.5 182.88,0 297.12,0 297.12,-30.5"/>
<text xml:space="preserve" text-anchor="start" x="190.88" y="-17" font-family="Helvetica,sans-Serif" font-size="10.00">PRISMS::von_mises&lt;</text>
<text xml:space="preserve" text-anchor="middle" x="240" y="-5.75" font-family="Helvetica,sans-Serif" font-size="10.00"> VarContainer &gt;</text>
</a>
</g>
</g>
<!-- Node0&#45;&gt;Node6 -->
<g id="edge25_Node000000_Node000006" class="edge">
<title>Node0&#45;&gt;Node6</title>
<g id="a_edge25_Node000000_Node000006"><a xlink:title=" ">
<path fill="none" stroke="#63b8ff" d="M83.76,-90.19C101.75,-73.88 127.76,-52.62 154,-39.25 162.88,-34.73 172.73,-30.95 182.49,-27.84"/>
<polygon fill="#63b8ff" stroke="#63b8ff" points="81.68,-87.35 76.72,-96.71 86.44,-92.48 81.68,-87.35"/>
</a>
</g>
</g>
</g>
</svg>
