<?xml version="1.0" encoding="UTF-8" standalone="no"?>
<!DOCTYPE svg PUBLIC "-//W3C//DTD SVG 1.1//EN"
 "http://www.w3.org/Graphics/SVG/1.1/DTD/svg11.dtd">
<!-- Generated by graphviz version 13.1.2 (20250808.2320)
 -->
<!-- Title: Graphical Class Hierarchy Pages: 1 -->
<svg width="296pt" height="64pt"
 viewBox="0.00 0.00 296.00 64.00" xmlns="http://www.w3.org/2000/svg" xmlns:xlink="http://www.w3.org/1999/xlink">
<g id="graph0" class="graph" transform="scale(1 1) rotate(0) translate(4 60.25)">
<title>Graphical Class Hierarchy</title>
<!-- Node0 -->
<g id="Node000000" class="node">
<title>Node0</title>
<g id="a_Node000000"><a xlink:href="class_solver_parameters_base.html" target="_top" xlink:title=" ">
<polygon fill="white" stroke="#666666" points="116.5,-37.25 0,-37.25 0,-18 116.5,-18 116.5,-37.25"/>
<text xml:space="preserve" text-anchor="middle" x="58.25" y="-23.75" font-family="Helvetica,sans-Serif" font-size="10.00">SolverParametersBase</text>
</a>
</g>
</g>
<!-- Node1 -->
<g id="Node000001" class="node">
<title>Node1</title>
<g id="a_Node000001"><a xlink:href="class_linear_solver_parameters.html" target="_top" xlink:title=" ">
<polygon fill="white" stroke="#666666" points="280.25,-56.25 160,-56.25 160,-37 280.25,-37 280.25,-56.25"/>
<text xml:space="preserve" text-anchor="middle" x="220.12" y="-42.75" font-family="Helvetica,sans-Serif" font-size="10.00">LinearSolverParameters</text>
</a>
</g>
</g>
<!-- Node0&#45;&gt;Node1 -->
<g id="edge310_Node000000_Node000001" class="edge">
<title>Node0&#45;&gt;Node1</title>
<g id="a_edge310_Node000000_Node000001"><a xlink:title=" ">
<path fill="none" stroke="#63b8ff" d="M128.19,-35.82C138.65,-37.06 149.37,-38.33 159.61,-39.55"/>
<polygon fill="#63b8ff" stroke="#63b8ff" points="128.81,-32.37 118.47,-34.66 127.99,-39.32 128.81,-32.37"/>
</a>
</g>
</g>
<!-- Node2 -->
<g id="Node000002" class="node">
<title>Node2</title>
<g id="a_Node000002"><a xlink:href="class_nonlinear_solver_parameters.html" target="_top" xlink:title=" ">
<polygon fill="white" stroke="#666666" points="287.75,-19.25 152.5,-19.25 152.5,0 287.75,0 287.75,-19.25"/>
<text xml:space="preserve" text-anchor="middle" x="220.12" y="-5.75" font-family="Helvetica,sans-Serif" font-size="10.00">NonlinearSolverParameters</text>
</a>
</g>
</g>
<!-- Node0&#45;&gt;Node2 -->
<g id="edge311_Node000000_Node000002" class="edge">
<title>Node0&#45;&gt;Node2</title>
<g id="a_edge311_Node000000_Node000002"><a xlink:title=" ">
<path fill="none" stroke="#63b8ff" d="M128.14,-19.87C136.13,-18.97 144.28,-18.05 152.25,-17.15"/>
<polygon fill="#63b8ff" stroke="#63b8ff" points="128.02,-16.36 118.47,-20.96 128.8,-23.32 128.02,-16.36"/>
</a>
</g>
</g>
</g>
</svg>
