<?xml version="1.0" encoding="UTF-8" standalone="no"?>
<!DOCTYPE svg PUBLIC "-//W3C//DTD SVG 1.1//EN"
 "http://www.w3.org/Graphics/SVG/1.1/DTD/svg11.dtd">
<!-- Generated by graphviz version 13.1.2 (20250808.2320)
 -->
<!-- Title: Graphical Class Hierarchy Pages: 1 -->
<svg width="273pt" height="272pt"
 viewBox="0.00 0.00 273.00 272.00" xmlns="http://www.w3.org/2000/svg" xmlns:xlink="http://www.w3.org/1999/xlink">
<g id="graph0" class="graph" transform="scale(1 1) rotate(0) translate(4 267.88)">
<title>Graphical Class Hierarchy</title>
<!-- Node0 -->
<g id="Node000000" class="node">
<title>Node0</title>
<g id="a_Node000000"><a xlink:title=" ">
<polygon fill="#e0e0e0" stroke="#999999" points="82,-135.25 0,-135.25 0,-116 82,-116 82,-135.25"/>
<text xml:space="preserve" text-anchor="middle" x="41" y="-121.75" font-family="Helvetica,sans-Serif" font-size="10.00">dealii::Function</text>
</a>
</g>
</g>
<!-- Node1 -->
<g id="Node000001" class="node">
<title>Node1</title>
<g id="a_Node000001"><a xlink:href="class_initial_condition.html" target="_top" xlink:title=" ">
<polygon fill="white" stroke="#666666" points="245.75,-263.88 137.5,-263.88 137.5,-233.38 245.75,-233.38 245.75,-263.88"/>
<text xml:space="preserve" text-anchor="start" x="145.5" y="-250.38" font-family="Helvetica,sans-Serif" font-size="10.00">InitialCondition&lt; dim,</text>
<text xml:space="preserve" text-anchor="middle" x="191.62" y="-239.12" font-family="Helvetica,sans-Serif" font-size="10.00"> degree &gt;</text>
</a>
</g>
</g>
<!-- Node0&#45;&gt;Node1 -->
<g id="edge1_Node000000_Node000001" class="edge">
<title>Node0&#45;&gt;Node1</title>
<g id="a_edge1_Node000000_Node000001"><a xlink:title=" ">
<path fill="none" stroke="#63b8ff" d="M52.61,-145.41C65.38,-167.44 88.8,-202.72 118,-223.62 123.85,-227.82 130.47,-231.35 137.27,-234.32"/>
<polygon fill="#63b8ff" stroke="#63b8ff" points="55.75,-143.84 47.81,-136.82 49.64,-147.26 55.75,-143.84"/>
</a>
</g>
</g>
<!-- Node2 -->
<g id="Node000002" class="node">
<title>Node2</title>
<g id="a_Node000002"><a xlink:href="class_initial_condition_p_field.html" target="_top" xlink:title=" ">
<polygon fill="white" stroke="#666666" points="245.75,-214.88 137.5,-214.88 137.5,-184.38 245.75,-184.38 245.75,-214.88"/>
<text xml:space="preserve" text-anchor="start" x="145.5" y="-201.38" font-family="Helvetica,sans-Serif" font-size="10.00">InitialConditionPField</text>
<text xml:space="preserve" text-anchor="middle" x="191.62" y="-190.12" font-family="Helvetica,sans-Serif" font-size="10.00">&lt; dim &gt;</text>
</a>
</g>
</g>
<!-- Node0&#45;&gt;Node2 -->
<g id="edge2_Node000000_Node000002" class="edge">
<title>Node0&#45;&gt;Node2</title>
<g id="a_edge2_Node000000_Node000002"><a xlink:title=" ">
<path fill="none" stroke="#63b8ff" d="M64.68,-142.32C79.36,-152.59 99.18,-165.49 118,-174.62 124.96,-178 132.49,-181.13 139.98,-183.96"/>
<polygon fill="#63b8ff" stroke="#63b8ff" points="66.82,-139.54 56.65,-136.58 62.76,-145.24 66.82,-139.54"/>
</a>
</g>
</g>
<!-- Node3 -->
<g id="Node000003" class="node">
<title>Node3</title>
<g id="a_Node000003"><a xlink:href="class_initial_condition_vector.html" target="_top" xlink:title=" ">
<polygon fill="white" stroke="#666666" points="246.12,-165.88 137.12,-165.88 137.12,-135.38 246.12,-135.38 246.12,-165.88"/>
<text xml:space="preserve" text-anchor="start" x="145.12" y="-152.38" font-family="Helvetica,sans-Serif" font-size="10.00">InitialConditionVector</text>
<text xml:space="preserve" text-anchor="middle" x="191.62" y="-141.12" font-family="Helvetica,sans-Serif" font-size="10.00">&lt; dim, degree &gt;</text>
</a>
</g>
</g>
<!-- Node0&#45;&gt;Node3 -->
<g id="edge3_Node000000_Node000003" class="edge">
<title>Node0&#45;&gt;Node3</title>
<g id="a_edge3_Node000000_Node000003"><a xlink:title=" ">
<path fill="none" stroke="#63b8ff" d="M93.18,-134.23C107.23,-136.6 122.5,-139.17 136.69,-141.55"/>
<polygon fill="#63b8ff" stroke="#63b8ff" points="94.15,-130.85 83.71,-132.64 92.99,-137.75 94.15,-130.85"/>
</a>
</g>
</g>
<!-- Node4 -->
<g id="Node000004" class="node">
<title>Node4</title>
<g id="a_Node000004"><a xlink:href="class_non_uniform_dirichlet_b_c.html" target="_top" xlink:title=" ">
<polygon fill="white" stroke="#666666" points="251,-116.88 132.25,-116.88 132.25,-86.38 251,-86.38 251,-116.88"/>
<text xml:space="preserve" text-anchor="start" x="140.25" y="-103.38" font-family="Helvetica,sans-Serif" font-size="10.00">NonUniformDirichletBC</text>
<text xml:space="preserve" text-anchor="middle" x="191.62" y="-92.12" font-family="Helvetica,sans-Serif" font-size="10.00">&lt; dim, degree &gt;</text>
</a>
</g>
</g>
<!-- Node0&#45;&gt;Node4 -->
<g id="edge4_Node000000_Node000004" class="edge">
<title>Node0&#45;&gt;Node4</title>
<g id="a_edge4_Node000000_Node000004"><a xlink:title=" ">
<path fill="none" stroke="#63b8ff" d="M93.34,-117.33C105.79,-115.32 119.19,-113.16 131.95,-111.1"/>
<polygon fill="#63b8ff" stroke="#63b8ff" points="93.03,-113.84 83.71,-118.89 94.14,-120.75 93.03,-113.84"/>
</a>
</g>
</g>
<!-- Node5 -->
<g id="Node000005" class="node">
<title>Node5</title>
<g id="a_Node000005"><a xlink:href="class_non_uniform_dirichlet_b_c_vector.html" target="_top" xlink:title=" ">
<polygon fill="white" stroke="#666666" points="265.25,-67.88 118,-67.88 118,-37.38 265.25,-37.38 265.25,-67.88"/>
<text xml:space="preserve" text-anchor="start" x="126" y="-54.38" font-family="Helvetica,sans-Serif" font-size="10.00">NonUniformDirichletBCVector</text>
<text xml:space="preserve" text-anchor="middle" x="191.62" y="-43.12" font-family="Helvetica,sans-Serif" font-size="10.00">&lt; dim, degree &gt;</text>
</a>
</g>
</g>
<!-- Node0&#45;&gt;Node5 -->
<g id="edge5_Node000000_Node000005" class="edge">
<title>Node0&#45;&gt;Node5</title>
<g id="a_edge5_Node000000_Node000005"><a xlink:title=" ">
<path fill="none" stroke="#63b8ff" d="M65,-109.12C79.67,-99.1 99.37,-86.57 118,-77.62 124.97,-74.28 132.51,-71.17 140.01,-68.35"/>
<polygon fill="#63b8ff" stroke="#63b8ff" points="63.17,-106.13 56.96,-114.72 67.17,-111.88 63.17,-106.13"/>
</a>
</g>
</g>
<!-- Node6 -->
<g id="Node000006" class="node">
<title>Node6</title>
<g id="a_Node000006"><a xlink:href="classvector_b_c_function.html" target="_top" xlink:title=" ">
<polygon fill="white" stroke="#666666" points="255.88,-19.25 127.38,-19.25 127.38,0 255.88,0 255.88,-19.25"/>
<text xml:space="preserve" text-anchor="middle" x="191.62" y="-5.75" font-family="Helvetica,sans-Serif" font-size="10.00">vectorBCFunction&lt; dim &gt;</text>
</a>
</g>
</g>
<!-- Node0&#45;&gt;Node6 -->
<g id="edge6_Node000000_Node000006" class="edge">
<title>Node0&#45;&gt;Node6</title>
<g id="a_edge6_Node000000_Node000006"><a xlink:title=" ">
<path fill="none" stroke="#63b8ff" d="M52.38,-105.64C64.94,-83.46 88.17,-48.21 118,-28.62 123.56,-24.98 129.78,-22.03 136.19,-19.64"/>
<polygon fill="#63b8ff" stroke="#63b8ff" points="49.38,-103.84 47.67,-114.3 55.53,-107.19 49.38,-103.84"/>
</a>
</g>
</g>
</g>
</svg>
