<?xml version="1.0" encoding="UTF-8" standalone="no"?>
<!DOCTYPE svg PUBLIC "-//W3C//DTD SVG 1.1//EN"
 "http://www.w3.org/Graphics/SVG/1.1/DTD/svg11.dtd">
<!-- Generated by graphviz version 13.1.2 (20250808.2320)
 -->
<!-- Title: Graphical Class Hierarchy Pages: 1 -->
<svg width="321pt" height="249pt"
 viewBox="0.00 0.00 321.00 249.00" xmlns="http://www.w3.org/2000/svg" xmlns:xlink="http://www.w3.org/1999/xlink">
<g id="graph0" class="graph" transform="scale(1 1) rotate(0) translate(4 245.25)">
<title>Graphical Class Hierarchy</title>
<!-- Node0 -->
<g id="Node000000" class="node">
<title>Node0</title>
<g id="a_Node000000"><a xlink:href="class_p_r_i_s_m_s_1_1_p_simple_base.html" target="_top" xlink:title=" ">
<polygon fill="white" stroke="#666666" points="145,-141.5 0,-141.5 0,-99.75 145,-99.75 145,-141.5"/>
<text xml:space="preserve" text-anchor="start" x="8" y="-128" font-family="Helvetica,sans-Serif" font-size="10.00">PRISMS::PSimpleBase</text>
<text xml:space="preserve" text-anchor="start" x="8" y="-116.75" font-family="Helvetica,sans-Serif" font-size="10.00">&lt; std::vector&lt; PRISMS</text>
<text xml:space="preserve" text-anchor="middle" x="72.5" y="-105.5" font-family="Helvetica,sans-Serif" font-size="10.00">::Coordinate&lt; 2 &gt; &gt;, double &gt;</text>
</a>
</g>
</g>
<!-- Node1 -->
<g id="Node000001" class="node">
<title>Node1</title>
<g id="a_Node000001"><a xlink:href="class_p_r_i_s_m_s_1_1_quad__f.html" target="_top" xlink:title=" ">
<polygon fill="white" stroke="#666666" points="293,-241.25 200.5,-241.25 200.5,-222 293,-222 293,-241.25"/>
<text xml:space="preserve" text-anchor="middle" x="246.75" y="-227.75" font-family="Helvetica,sans-Serif" font-size="10.00">PRISMS::Quad_f</text>
</a>
</g>
</g>
<!-- Node0&#45;&gt;Node1 -->
<g id="edge30_Node000000_Node000001" class="edge">
<title>Node0&#45;&gt;Node1</title>
<g id="a_edge30_Node000000_Node000001"><a xlink:title=" ">
<path fill="none" stroke="#63b8ff" d="M100.31,-149.89C120.63,-170.45 150.22,-197.12 181,-213.62 186.96,-216.82 193.55,-219.5 200.17,-221.72"/>
<polygon fill="#63b8ff" stroke="#63b8ff" points="102.98,-147.62 93.51,-142.87 97.95,-152.49 102.98,-147.62"/>
</a>
</g>
</g>
<!-- Node2 -->
<g id="Node000002" class="node">
<title>Node2</title>
<g id="a_Node000002"><a xlink:href="class_p_r_i_s_m_s_1_1_quad__grad__0.html" target="_top" xlink:title=" ">
<polygon fill="white" stroke="#666666" points="306.12,-204.25 187.38,-204.25 187.38,-185 306.12,-185 306.12,-204.25"/>
<text xml:space="preserve" text-anchor="middle" x="246.75" y="-190.75" font-family="Helvetica,sans-Serif" font-size="10.00">PRISMS::Quad_grad_0</text>
</a>
</g>
</g>
<!-- Node0&#45;&gt;Node2 -->
<g id="edge31_Node000000_Node000002" class="edge">
<title>Node0&#45;&gt;Node2</title>
<g id="a_edge31_Node000000_Node000002"><a xlink:title=" ">
<path fill="none" stroke="#63b8ff" d="M119.43,-147.25C138.12,-157.37 160.19,-168.42 181,-176.62 188.49,-179.58 196.65,-182.25 204.56,-184.57"/>
<polygon fill="#63b8ff" stroke="#63b8ff" points="121.2,-144.23 110.75,-142.48 117.83,-150.37 121.2,-144.23"/>
</a>
</g>
</g>
<!-- Node3 -->
<g id="Node000003" class="node">
<title>Node3</title>
<g id="a_Node000003"><a xlink:href="class_p_r_i_s_m_s_1_1_quad__grad__1.html" target="_top" xlink:title=" ">
<polygon fill="white" stroke="#666666" points="306.12,-167.25 187.38,-167.25 187.38,-148 306.12,-148 306.12,-167.25"/>
<text xml:space="preserve" text-anchor="middle" x="246.75" y="-153.75" font-family="Helvetica,sans-Serif" font-size="10.00">PRISMS::Quad_grad_1</text>
</a>
</g>
</g>
<!-- Node0&#45;&gt;Node3 -->
<g id="edge32_Node000000_Node000003" class="edge">
<title>Node0&#45;&gt;Node3</title>
<g id="a_edge32_Node000000_Node000003"><a xlink:title=" ">
<path fill="none" stroke="#63b8ff" d="M156.17,-138.38C170.79,-141.52 185.54,-144.69 198.73,-147.52"/>
<polygon fill="#63b8ff" stroke="#63b8ff" points="157.04,-134.99 146.53,-136.31 155.57,-141.83 157.04,-134.99"/>
</a>
</g>
</g>
<!-- Node4 -->
<g id="Node000004" class="node">
<title>Node4</title>
<g id="a_Node000004"><a xlink:href="class_p_r_i_s_m_s_1_1_quad__hess__0__0.html" target="_top" xlink:title=" ">
<polygon fill="white" stroke="#666666" points="312.5,-130.25 181,-130.25 181,-111 312.5,-111 312.5,-130.25"/>
<text xml:space="preserve" text-anchor="middle" x="246.75" y="-116.75" font-family="Helvetica,sans-Serif" font-size="10.00">PRISMS::Quad_hess_0_0</text>
</a>
</g>
</g>
<!-- Node0&#45;&gt;Node4 -->
<g id="edge33_Node000000_Node000004" class="edge">
<title>Node0&#45;&gt;Node4</title>
<g id="a_edge33_Node000000_Node000004"><a xlink:title=" ">
<path fill="none" stroke="#63b8ff" d="M156.51,-120.62C164.65,-120.62 172.83,-120.62 180.75,-120.62"/>
<polygon fill="#63b8ff" stroke="#63b8ff" points="156.57,-117.13 146.57,-120.63 156.57,-124.13 156.57,-117.13"/>
</a>
</g>
</g>
<!-- Node5 -->
<g id="Node000005" class="node">
<title>Node5</title>
<g id="a_Node000005"><a xlink:href="class_p_r_i_s_m_s_1_1_quad__hess__0__1.html" target="_top" xlink:title=" ">
<polygon fill="white" stroke="#666666" points="312.5,-93.25 181,-93.25 181,-74 312.5,-74 312.5,-93.25"/>
<text xml:space="preserve" text-anchor="middle" x="246.75" y="-79.75" font-family="Helvetica,sans-Serif" font-size="10.00">PRISMS::Quad_hess_0_1</text>
</a>
</g>
</g>
<!-- Node0&#45;&gt;Node5 -->
<g id="edge34_Node000000_Node000005" class="edge">
<title>Node0&#45;&gt;Node5</title>
<g id="a_edge34_Node000000_Node000005"><a xlink:title=" ">
<path fill="none" stroke="#63b8ff" d="M156.17,-102.87C170.79,-99.73 185.54,-96.56 198.73,-93.73"/>
<polygon fill="#63b8ff" stroke="#63b8ff" points="155.57,-99.42 146.53,-104.94 157.04,-106.26 155.57,-99.42"/>
</a>
</g>
</g>
<!-- Node6 -->
<g id="Node000006" class="node">
<title>Node6</title>
<g id="a_Node000006"><a xlink:href="class_p_r_i_s_m_s_1_1_quad__hess__1__0.html" target="_top" xlink:title=" ">
<polygon fill="white" stroke="#666666" points="312.5,-56.25 181,-56.25 181,-37 312.5,-37 312.5,-56.25"/>
<text xml:space="preserve" text-anchor="middle" x="246.75" y="-42.75" font-family="Helvetica,sans-Serif" font-size="10.00">PRISMS::Quad_hess_1_0</text>
</a>
</g>
</g>
<!-- Node0&#45;&gt;Node6 -->
<g id="edge35_Node000000_Node000006" class="edge">
<title>Node0&#45;&gt;Node6</title>
<g id="a_edge35_Node000000_Node000006"><a xlink:title=" ">
<path fill="none" stroke="#63b8ff" d="M119.43,-94C138.12,-83.88 160.19,-72.83 181,-64.62 188.49,-61.67 196.65,-59 204.56,-56.68"/>
<polygon fill="#63b8ff" stroke="#63b8ff" points="117.83,-90.88 110.75,-98.77 121.2,-97.02 117.83,-90.88"/>
</a>
</g>
</g>
<!-- Node7 -->
<g id="Node000007" class="node">
<title>Node7</title>
<g id="a_Node000007"><a xlink:href="class_p_r_i_s_m_s_1_1_quad__hess__1__1.html" target="_top" xlink:title=" ">
<polygon fill="white" stroke="#666666" points="312.5,-19.25 181,-19.25 181,0 312.5,0 312.5,-19.25"/>
<text xml:space="preserve" text-anchor="middle" x="246.75" y="-5.75" font-family="Helvetica,sans-Serif" font-size="10.00">PRISMS::Quad_hess_1_1</text>
</a>
</g>
</g>
<!-- Node0&#45;&gt;Node7 -->
<g id="edge36_Node000000_Node000007" class="edge">
<title>Node0&#45;&gt;Node7</title>
<g id="a_edge36_Node000000_Node000007"><a xlink:title=" ">
<path fill="none" stroke="#63b8ff" d="M100.31,-91.36C120.63,-70.8 150.22,-44.13 181,-27.62 186.86,-24.48 193.32,-21.85 199.83,-19.65"/>
<polygon fill="#63b8ff" stroke="#63b8ff" points="97.95,-88.76 93.51,-98.38 102.98,-93.63 97.95,-88.76"/>
</a>
</g>
</g>
</g>
</svg>
