<?xml version="1.0" encoding="UTF-8" standalone="no"?>
<!DOCTYPE svg PUBLIC "-//W3C//DTD SVG 1.1//EN"
 "http://www.w3.org/Graphics/SVG/1.1/DTD/svg11.dtd">
<!-- Generated by graphviz version 13.1.2 (20250808.2320)
 -->
<!-- Title: Graphical Class Hierarchy Pages: 1 -->
<svg width="311pt" height="615pt"
 viewBox="0.00 0.00 311.00 615.00" xmlns="http://www.w3.org/2000/svg" xmlns:xlink="http://www.w3.org/1999/xlink">
<g id="graph0" class="graph" transform="scale(1 1) rotate(0) translate(4 610.88)">
<title>Graphical Class Hierarchy</title>
<!-- Node0 -->
<g id="Node000000" class="node">
<title>Node0</title>
<g id="a_Node000000"><a xlink:href="class_p_r_i_s_m_s_1_1_p_simple_base.html" target="_top" xlink:title=" ">
<polygon fill="white" stroke="#666666" points="145,-330.12 0,-330.12 0,-288.38 145,-288.38 145,-330.12"/>
<text xml:space="preserve" text-anchor="start" x="8" y="-316.62" font-family="Helvetica,sans-Serif" font-size="10.00">PRISMS::PSimpleBase</text>
<text xml:space="preserve" text-anchor="start" x="8" y="-305.38" font-family="Helvetica,sans-Serif" font-size="10.00">&lt; std::vector&lt; PRISMS</text>
<text xml:space="preserve" text-anchor="middle" x="72.5" y="-294.12" font-family="Helvetica,sans-Serif" font-size="10.00">::Coordinate&lt; 3 &gt; &gt;, double &gt;</text>
</a>
</g>
</g>
<!-- Node1 -->
<g id="Node000001" class="node">
<title>Node1</title>
<g id="a_Node000001"><a xlink:href="class_p_r_i_s_m_s_1_1_hexahedron__f.html" target="_top" xlink:title=" ">
<polygon fill="white" stroke="#666666" points="302.75,-606.88 181,-606.88 181,-587.62 302.75,-587.62 302.75,-606.88"/>
<text xml:space="preserve" text-anchor="middle" x="241.88" y="-593.38" font-family="Helvetica,sans-Serif" font-size="10.00">PRISMS::Hexahedron_f</text>
</a>
</g>
</g>
<!-- Node0&#45;&gt;Node1 -->
<g id="edge37_Node000000_Node000001" class="edge">
<title>Node0&#45;&gt;Node1</title>
<g id="a_edge37_Node000000_Node000001"><a xlink:title=" ">
<path fill="none" stroke="#63b8ff" d="M77.48,-341.89C86.06,-398.17 111.51,-513.65 181,-578.25 184.91,-581.89 189.52,-584.83 194.42,-587.21"/>
<polygon fill="#63b8ff" stroke="#63b8ff" points="80.94,-341.4 76.06,-332 74.01,-342.39 80.94,-341.4"/>
</a>
</g>
</g>
<!-- Node2 -->
<g id="Node000002" class="node">
<title>Node2</title>
<g id="a_Node000002"><a xlink:href="class_p_r_i_s_m_s_1_1_hexahedron__grad__0.html" target="_top" xlink:title=" ">
<polygon fill="white" stroke="#666666" points="298.62,-569.5 185.12,-569.5 185.12,-539 298.62,-539 298.62,-569.5"/>
<text xml:space="preserve" text-anchor="start" x="193.12" y="-556" font-family="Helvetica,sans-Serif" font-size="10.00">PRISMS::Hexahedron</text>
<text xml:space="preserve" text-anchor="middle" x="241.88" y="-544.75" font-family="Helvetica,sans-Serif" font-size="10.00">_grad_0</text>
</a>
</g>
</g>
<!-- Node0&#45;&gt;Node2 -->
<g id="edge38_Node000000_Node000002" class="edge">
<title>Node0&#45;&gt;Node2</title>
<g id="a_edge38_Node000000_Node000002"><a xlink:title=" ">
<path fill="none" stroke="#63b8ff" d="M81.43,-341.49C94.56,-388.65 125.11,-476.56 181,-529.25 184.77,-532.8 189.12,-535.89 193.72,-538.56"/>
<polygon fill="#63b8ff" stroke="#63b8ff" points="84.82,-340.63 78.85,-331.88 78.06,-342.45 84.82,-340.63"/>
</a>
</g>
</g>
<!-- Node3 -->
<g id="Node000003" class="node">
<title>Node3</title>
<g id="a_Node000003"><a xlink:href="class_p_r_i_s_m_s_1_1_hexahedron__grad__1.html" target="_top" xlink:title=" ">
<polygon fill="white" stroke="#666666" points="298.62,-520.5 185.12,-520.5 185.12,-490 298.62,-490 298.62,-520.5"/>
<text xml:space="preserve" text-anchor="start" x="193.12" y="-507" font-family="Helvetica,sans-Serif" font-size="10.00">PRISMS::Hexahedron</text>
<text xml:space="preserve" text-anchor="middle" x="241.88" y="-495.75" font-family="Helvetica,sans-Serif" font-size="10.00">_grad_1</text>
</a>
</g>
</g>
<!-- Node0&#45;&gt;Node3 -->
<g id="edge39_Node000000_Node000003" class="edge">
<title>Node0&#45;&gt;Node3</title>
<g id="a_edge39_Node000000_Node000003"><a xlink:title=" ">
<path fill="none" stroke="#63b8ff" d="M86.28,-341C102.95,-378.81 135.45,-441.68 181,-480.25 185.21,-483.82 190.01,-486.93 195,-489.64"/>
<polygon fill="#63b8ff" stroke="#63b8ff" points="89.57,-339.79 82.41,-331.98 83.14,-342.55 89.57,-339.79"/>
</a>
</g>
</g>
<!-- Node4 -->
<g id="Node000004" class="node">
<title>Node4</title>
<g id="a_Node000004"><a xlink:href="class_p_r_i_s_m_s_1_1_hexahedron__grad__2.html" target="_top" xlink:title=" ">
<polygon fill="white" stroke="#666666" points="298.62,-471.5 185.12,-471.5 185.12,-441 298.62,-441 298.62,-471.5"/>
<text xml:space="preserve" text-anchor="start" x="193.12" y="-458" font-family="Helvetica,sans-Serif" font-size="10.00">PRISMS::Hexahedron</text>
<text xml:space="preserve" text-anchor="middle" x="241.88" y="-446.75" font-family="Helvetica,sans-Serif" font-size="10.00">_grad_2</text>
</a>
</g>
</g>
<!-- Node0&#45;&gt;Node4 -->
<g id="edge40_Node000000_Node000004" class="edge">
<title>Node0&#45;&gt;Node4</title>
<g id="a_edge40_Node000000_Node000004"><a xlink:title=" ">
<path fill="none" stroke="#63b8ff" d="M93.98,-339.46C113.63,-366.53 145.5,-405.79 181,-431.25 185.85,-434.73 191.26,-437.84 196.79,-440.58"/>
<polygon fill="#63b8ff" stroke="#63b8ff" points="97.09,-337.78 88.43,-331.67 91.38,-341.84 97.09,-337.78"/>
</a>
</g>
</g>
<!-- Node5 -->
<g id="Node000005" class="node">
<title>Node5</title>
<g id="a_Node000005"><a xlink:href="class_p_r_i_s_m_s_1_1_hexahedron__hess__0__0.html" target="_top" xlink:title=" ">
<polygon fill="white" stroke="#666666" points="298.62,-422.5 185.12,-422.5 185.12,-392 298.62,-392 298.62,-422.5"/>
<text xml:space="preserve" text-anchor="start" x="193.12" y="-409" font-family="Helvetica,sans-Serif" font-size="10.00">PRISMS::Hexahedron</text>
<text xml:space="preserve" text-anchor="middle" x="241.88" y="-397.75" font-family="Helvetica,sans-Serif" font-size="10.00">_hess_0_0</text>
</a>
</g>
</g>
<!-- Node0&#45;&gt;Node5 -->
<g id="edge41_Node000000_Node000005" class="edge">
<title>Node0&#45;&gt;Node5</title>
<g id="a_edge41_Node000000_Node000005"><a xlink:title=" ">
<path fill="none" stroke="#63b8ff" d="M110.42,-337.04C130.64,-351.55 156.51,-369 181,-382.25 187.04,-385.52 193.61,-388.65 200.1,-391.52"/>
<polygon fill="#63b8ff" stroke="#63b8ff" points="112.63,-334.32 102.49,-331.28 108.52,-339.99 112.63,-334.32"/>
</a>
</g>
</g>
<!-- Node6 -->
<g id="Node000006" class="node">
<title>Node6</title>
<g id="a_Node000006"><a xlink:href="class_p_r_i_s_m_s_1_1_hexahedron__hess__0__1.html" target="_top" xlink:title=" ">
<polygon fill="white" stroke="#666666" points="298.62,-373.5 185.12,-373.5 185.12,-343 298.62,-343 298.62,-373.5"/>
<text xml:space="preserve" text-anchor="start" x="193.12" y="-360" font-family="Helvetica,sans-Serif" font-size="10.00">PRISMS::Hexahedron</text>
<text xml:space="preserve" text-anchor="middle" x="241.88" y="-348.75" font-family="Helvetica,sans-Serif" font-size="10.00">_hess_0_1</text>
</a>
</g>
</g>
<!-- Node0&#45;&gt;Node6 -->
<g id="edge42_Node000000_Node000006" class="edge">
<title>Node0&#45;&gt;Node6</title>
<g id="a_edge42_Node000000_Node000006"><a xlink:title=" ">
<path fill="none" stroke="#63b8ff" d="M156.34,-333.5C166.82,-336.57 177.32,-339.64 187.18,-342.53"/>
<polygon fill="#63b8ff" stroke="#63b8ff" points="157.49,-330.19 146.91,-330.74 155.52,-336.91 157.49,-330.19"/>
</a>
</g>
</g>
<!-- Node7 -->
<g id="Node000007" class="node">
<title>Node7</title>
<g id="a_Node000007"><a xlink:href="class_p_r_i_s_m_s_1_1_hexahedron__hess__0__2.html" target="_top" xlink:title=" ">
<polygon fill="white" stroke="#666666" points="298.62,-324.5 185.12,-324.5 185.12,-294 298.62,-294 298.62,-324.5"/>
<text xml:space="preserve" text-anchor="start" x="193.12" y="-311" font-family="Helvetica,sans-Serif" font-size="10.00">PRISMS::Hexahedron</text>
<text xml:space="preserve" text-anchor="middle" x="241.88" y="-299.75" font-family="Helvetica,sans-Serif" font-size="10.00">_hess_0_2</text>
</a>
</g>
</g>
<!-- Node0&#45;&gt;Node7 -->
<g id="edge43_Node000000_Node000007" class="edge">
<title>Node0&#45;&gt;Node7</title>
<g id="a_edge43_Node000000_Node000007"><a xlink:title=" ">
<path fill="none" stroke="#63b8ff" d="M156.89,-309.25C166.3,-309.25 175.71,-309.25 184.65,-309.25"/>
<polygon fill="#63b8ff" stroke="#63b8ff" points="156.97,-305.75 146.97,-309.25 156.97,-312.75 156.97,-305.75"/>
</a>
</g>
</g>
<!-- Node8 -->
<g id="Node000008" class="node">
<title>Node8</title>
<g id="a_Node000008"><a xlink:href="class_p_r_i_s_m_s_1_1_hexahedron__hess__1__0.html" target="_top" xlink:title=" ">
<polygon fill="white" stroke="#666666" points="298.62,-275.5 185.12,-275.5 185.12,-245 298.62,-245 298.62,-275.5"/>
<text xml:space="preserve" text-anchor="start" x="193.12" y="-262" font-family="Helvetica,sans-Serif" font-size="10.00">PRISMS::Hexahedron</text>
<text xml:space="preserve" text-anchor="middle" x="241.88" y="-250.75" font-family="Helvetica,sans-Serif" font-size="10.00">_hess_1_0</text>
</a>
</g>
</g>
<!-- Node0&#45;&gt;Node8 -->
<g id="edge44_Node000000_Node000008" class="edge">
<title>Node0&#45;&gt;Node8</title>
<g id="a_edge44_Node000000_Node000008"><a xlink:title=" ">
<path fill="none" stroke="#63b8ff" d="M156.34,-285C166.82,-281.93 177.32,-278.86 187.18,-275.97"/>
<polygon fill="#63b8ff" stroke="#63b8ff" points="155.52,-281.59 146.91,-287.76 157.49,-288.31 155.52,-281.59"/>
</a>
</g>
</g>
<!-- Node9 -->
<g id="Node000009" class="node">
<title>Node9</title>
<g id="a_Node000009"><a xlink:href="class_p_r_i_s_m_s_1_1_hexahedron__hess__1__1.html" target="_top" xlink:title=" ">
<polygon fill="white" stroke="#666666" points="298.62,-226.5 185.12,-226.5 185.12,-196 298.62,-196 298.62,-226.5"/>
<text xml:space="preserve" text-anchor="start" x="193.12" y="-213" font-family="Helvetica,sans-Serif" font-size="10.00">PRISMS::Hexahedron</text>
<text xml:space="preserve" text-anchor="middle" x="241.88" y="-201.75" font-family="Helvetica,sans-Serif" font-size="10.00">_hess_1_1</text>
</a>
</g>
</g>
<!-- Node0&#45;&gt;Node9 -->
<g id="edge45_Node000000_Node000009" class="edge">
<title>Node0&#45;&gt;Node9</title>
<g id="a_edge45_Node000000_Node000009"><a xlink:title=" ">
<path fill="none" stroke="#63b8ff" d="M110.42,-281.46C130.64,-266.95 156.51,-249.5 181,-236.25 187.04,-232.98 193.61,-229.85 200.1,-226.98"/>
<polygon fill="#63b8ff" stroke="#63b8ff" points="108.52,-278.51 102.49,-287.22 112.63,-284.18 108.52,-278.51"/>
</a>
</g>
</g>
<!-- Node10 -->
<g id="Node000010" class="node">
<title>Node10</title>
<g id="a_Node000010"><a xlink:href="class_p_r_i_s_m_s_1_1_hexahedron__hess__1__2.html" target="_top" xlink:title=" ">
<polygon fill="white" stroke="#666666" points="298.62,-177.5 185.12,-177.5 185.12,-147 298.62,-147 298.62,-177.5"/>
<text xml:space="preserve" text-anchor="start" x="193.12" y="-164" font-family="Helvetica,sans-Serif" font-size="10.00">PRISMS::Hexahedron</text>
<text xml:space="preserve" text-anchor="middle" x="241.88" y="-152.75" font-family="Helvetica,sans-Serif" font-size="10.00">_hess_1_2</text>
</a>
</g>
</g>
<!-- Node0&#45;&gt;Node10 -->
<g id="edge46_Node000000_Node000010" class="edge">
<title>Node0&#45;&gt;Node10</title>
<g id="a_edge46_Node000000_Node000010"><a xlink:title=" ">
<path fill="none" stroke="#63b8ff" d="M93.98,-279.04C113.63,-251.97 145.5,-212.71 181,-187.25 185.85,-183.77 191.26,-180.66 196.79,-177.92"/>
<polygon fill="#63b8ff" stroke="#63b8ff" points="91.38,-276.66 88.43,-286.83 97.09,-280.72 91.38,-276.66"/>
</a>
</g>
</g>
<!-- Node11 -->
<g id="Node000011" class="node">
<title>Node11</title>
<g id="a_Node000011"><a xlink:href="class_p_r_i_s_m_s_1_1_hexahedron__hess__2__0.html" target="_top" xlink:title=" ">
<polygon fill="white" stroke="#666666" points="298.62,-128.5 185.12,-128.5 185.12,-98 298.62,-98 298.62,-128.5"/>
<text xml:space="preserve" text-anchor="start" x="193.12" y="-115" font-family="Helvetica,sans-Serif" font-size="10.00">PRISMS::Hexahedron</text>
<text xml:space="preserve" text-anchor="middle" x="241.88" y="-103.75" font-family="Helvetica,sans-Serif" font-size="10.00">_hess_2_0</text>
</a>
</g>
</g>
<!-- Node0&#45;&gt;Node11 -->
<g id="edge47_Node000000_Node000011" class="edge">
<title>Node0&#45;&gt;Node11</title>
<g id="a_edge47_Node000000_Node000011"><a xlink:title=" ">
<path fill="none" stroke="#63b8ff" d="M86.28,-277.5C102.95,-239.69 135.45,-176.82 181,-138.25 185.21,-134.68 190.01,-131.57 195,-128.86"/>
<polygon fill="#63b8ff" stroke="#63b8ff" points="83.14,-275.95 82.41,-286.52 89.57,-278.71 83.14,-275.95"/>
</a>
</g>
</g>
<!-- Node12 -->
<g id="Node000012" class="node">
<title>Node12</title>
<g id="a_Node000012"><a xlink:href="class_p_r_i_s_m_s_1_1_hexahedron__hess__2__1.html" target="_top" xlink:title=" ">
<polygon fill="white" stroke="#666666" points="298.62,-79.5 185.12,-79.5 185.12,-49 298.62,-49 298.62,-79.5"/>
<text xml:space="preserve" text-anchor="start" x="193.12" y="-66" font-family="Helvetica,sans-Serif" font-size="10.00">PRISMS::Hexahedron</text>
<text xml:space="preserve" text-anchor="middle" x="241.88" y="-54.75" font-family="Helvetica,sans-Serif" font-size="10.00">_hess_2_1</text>
</a>
</g>
</g>
<!-- Node0&#45;&gt;Node12 -->
<g id="edge48_Node000000_Node000012" class="edge">
<title>Node0&#45;&gt;Node12</title>
<g id="a_edge48_Node000000_Node000012"><a xlink:title=" ">
<path fill="none" stroke="#63b8ff" d="M81.43,-277.01C94.56,-229.85 125.11,-141.94 181,-89.25 184.77,-85.7 189.12,-82.61 193.72,-79.94"/>
<polygon fill="#63b8ff" stroke="#63b8ff" points="78.06,-276.05 78.85,-286.62 84.82,-277.87 78.06,-276.05"/>
</a>
</g>
</g>
<!-- Node13 -->
<g id="Node000013" class="node">
<title>Node13</title>
<g id="a_Node000013"><a xlink:href="class_p_r_i_s_m_s_1_1_hexahedron__hess__2__2.html" target="_top" xlink:title=" ">
<polygon fill="white" stroke="#666666" points="298.62,-30.5 185.12,-30.5 185.12,0 298.62,0 298.62,-30.5"/>
<text xml:space="preserve" text-anchor="start" x="193.12" y="-17" font-family="Helvetica,sans-Serif" font-size="10.00">PRISMS::Hexahedron</text>
<text xml:space="preserve" text-anchor="middle" x="241.88" y="-5.75" font-family="Helvetica,sans-Serif" font-size="10.00">_hess_2_2</text>
</a>
</g>
</g>
<!-- Node0&#45;&gt;Node13 -->
<g id="edge49_Node000000_Node000013" class="edge">
<title>Node0&#45;&gt;Node13</title>
<g id="a_edge49_Node000000_Node000013"><a xlink:title=" ">
<path fill="none" stroke="#63b8ff" d="M78.15,-276.82C87.73,-221.34 114.59,-107.69 181,-40.25 184.56,-36.64 188.71,-33.52 193.15,-30.84"/>
<polygon fill="#63b8ff" stroke="#63b8ff" points="74.72,-276.13 76.56,-286.56 81.63,-277.26 74.72,-276.13"/>
</a>
</g>
</g>
</g>
</svg>
